<svg id="Lag_1" data-name="Lag 1" xmlns="http://www.w3.org/2000/svg" viewBox="0 0 1439 708"><defs><style>.cls-1,.cls-3{fill:#333;}.cls-1{stroke:#333;stroke-miterlimit:10;}.cls-2,.cls-3{isolation:isolate;}.cls-3{font-size:200px;font-family:HoeflerText-Regular, Hoefler Text;}.cls-4{letter-spacing:-0.08em;}</style></defs><title>ANIMATION</title><g id="Tegnebræt_2" data-name="Tegnebræt 2"><path id="Path_14" data-name="Path 14" class="cls-1" d="M692,695.42c-3.72,1.31-9.37-2.68-11-7-1.77-4.7,1.3-9.58,3-13s3.13-7.67,3-35-1.58-40.17-2-60c-.21-10.18-.22-25.33,1-44,0,0-7-6-7-8s6-6,6-6,3-7,4-19-2-9,0-17a66.89,66.89,0,0,1,6-15,140.18,140.18,0,0,0,0-23c-1-14-3-20-3-20l4-4c.24-1.59.32-3.84-1-5s-2.49-.21-4-1c-3.23-1.68-1.55-7.73-4-9-1.61-.83-3.89,1-8,4-7.84,5.76-11.76,8.64-15,10-5.38,2.25-6.56.06-15,1-6.17.69-16.2,4.47-36,12-2.2.84-6.73,2.57-8,1-.91-1.13.3-3.43,1-5,1.24-2.79,1.49-7.86,2-18,1.15-22.9-1.44-22.37,1-28,3.39-7.83,10-12.44,8-16a4.72,4.72,0,0,0-3-2c-9.27-2.79-18.39-4.41-21-5-15-3.39-22.5-19.87-23-21-2.45-5.58.61-10-3-14-2.06-2.31-4.71-3.21-10-5-6.38-2.16-7.48-1.45-12-3-6.73-2.31-14.67-7.46-14-11,.38-2,3.35-2.76,7-4,14.76-5,12.71-8.13,33-16,7.83-3,11.75-4.56,15-5,13.2-1.8,23.85,3.46,29,6,18.88,9.32,18.46,29.88,30,30,4.58.05,10-2.88,12-4,4.5-2.46,5.89-4.43,12-8,5.55-3.25,8.33-4.87,10-4,3.87,2,1.4,13.66-1,25-2.23,10.53-4.09,12.94-5,14-4.56,5.29-9.35,4.55-11,9-.89,2.4.5,6.37,4,14,3.89,8.48,7.14,11.3,8,12,3.3,2.7,4.16,1.91,7,4,9.2,6.76,7.73,20.56,12,21,1.59.16,3.05-1.62,4-3,7.09-10.33,5.27-27.2,5-49-.29-23.65,1.51-31.73-4-38-1.43-1.62-5.17-5.21-5-10,.16-4.47,3.61-6.31,3-9-.91-4-9.53-3.89-16-6-19.29-6.29-31.33-36.3-34-54-.71-4.74-1.26-12-6-20-2.79-4.72-4.5-5.44-9-12-5.76-8.39-9.94-17.38-9-18s5.26,6.9,14,14c8.54,6.94,10.86,4.34,20,11a108.13,108.13,0,0,1,18,17c3.56,4.39,7.17,9.69,11,9a4.77,4.77,0,0,0,3-2c2-3.25-2-7.81-7-20-2.48-6-2.31-6.78-2-7,2.1-1.51,15.63,19.55,22,17,5.44-2.18,2.45-20.3,2-23-1.14-6.9-2.21-13.36-7-16-4.25-2.34-7,.74-15,0-9.69-.9-17.46-6.56-17-8,.68-2.15,19.9,4.33,22,0,1.65-3.4-10.21-7.32-15-21-1.8-5.14-2.13-10.31-7-15-2.16-2.08-3.79-2.7-6-4-10-5.9-18.37-17.94-16-22,2.59-4.44,17.49,1.54,19-2,1.12-2.62-6.63-6.78-13-19-2.65-5.07-3.24-8-2-10,1.38-2.17,4-1.32,7-3,5-2.75,4.46-8.54,8-17,2.14-5.11,5.61-13.41,12-16,5.38-2.19,7.28,1.94,22,6,7.87,2.17,26.36,6.25,35,9a11.58,11.58,0,0,1,4,2c3.31,2.62,2.55,5.26,5,7,3.12,2.22,5.91-1,10,1,3.5,1.68,2.57,4.54,6,7,4.32,3.1,7.71,0,14,2,4.92,1.6,10.89,6.15,11,11,.15,6.48-10.24,10.13-9,14,.81,2.51,5.25,1.18,10,5,.38.3,6.4,5.31,6,13-.18,3.49-1.79,9.3-6,11-4.86,2-8.23-3.57-14-2-5.55,1.51-9.49,8.53-8,11,1.71,2.83,10.56-.34,11,1,.76,2.31-25.93,11.18-25,18a5.62,5.62,0,0,0,3,4c2,.79,3.62-.53,4,0,.69,1-3.82,6.92-11,10-4.16,1.79-5,.78-8,2s-7.31,4.26-15,27c-3.28,9.7-4.72,15.72-4,16,1,.4,3.48-12.11,12-15,3.76-1.27,5,.56,18,3,10.81,2,11.65,1.09,15,3,8.68,5,10.77,15.69,11,17,2,11.07-4,19.71-7,24-3.3,4.75-7.12,10.24-14,12-11.16,2.85-21.32-6.46-23-8-9.6-8.8-9.5-19.3-12-19-5,.6-1.33,42.86-5,59.92,0,0-.61,2.86,0,3.08,1.28.49,4.79-13,15-22,3.05-2.69,8.07-4.83,18-9,20.92-8.79,26.11-8.68,31-15,4.7-6.07,1.46-8.19,6-17,5.39-10.47,17.36-21.85,31-23,10.75-.91,12.41,5.39,29,6,12,.44,15.8-2.68,18,0,6.42,7.83-23.23,38-29,43a14,14,0,0,1-5,3c-3,.95-5,.22-11,0-2.9-.11-4,0-6,0-13.31-.05-20.54-5.37-32-3-5.18,1.07-11.12,3.69-11,6,.09,1.74,3.59,2.55,7,4a39.92,39.92,0,0,1,18,16c3.73,6.6,2.82,14.73,1,31-1,8.93-2.8,17,2,22,1.81,1.87,4.1,2.83,4,3s-8.4-3.5-17-9c-3-1.93-3.41-2.36-5-3-6.46-2.6-12.43-.48-15,0-16.35,3.06-33.57-34.38-43-31-2.42.87-3.28,5.58-5,15-3.21,17.58,1.49,25.92,2,36a4.61,4.61,0,0,0,1,3c1.43,1.58,3.37.6,5,2s2.16,4.5,1,6-3.63.43-5,2-.43,3.91,0,6-.06,5.66-1,13c-2.44,19-7.1,34.44-4,36,2.77,1.4,9-9.67,25-26,13.48-13.79,20.22-20.69,30-24,6.31-2.14,5.79-.35,40,0,15.66.16,25.22-.12,26,3,.4,1.58-1.63,3.35-5,6-11.92,9.4-17.89,14.1-25,17-13.93,5.69-19.15,2.17-35,5-6.34,1.13-30.89,5.51-47,24-15,17.21-18.26,41.56-14,44,1.55.89,4.51-.91,5,0s-3.53,3.3-6,8a19.49,19.49,0,0,0-2,8c-1.44,15.88-7,32.93-4,34,1.05.38,2.51-1.45,3-1s-1.7,3.23-3,7a21.68,21.68,0,0,0-1,8c.07,16.18-8.63,33.74-1,42,1.13,1.22,3.21,2.89,4,6a12.62,12.62,0,0,1-1,8c-4.15,10.46,5.79,21.67,5,40-.21,4.85-.89,3.68-3,15C694.26,678.38,698.17,693.26,692,695.42Z"/></g><g id="ANIMATION" class="cls-2"><text class="cls-3" transform="translate(67 561.81)">ANIM<tspan class="cls-4" x="601.59" y="0">A</tspan><tspan x="733.19" y="0">TION</tspan></text></g></svg>
