<svg id="Lag_1" data-name="Lag 1" xmlns="http://www.w3.org/2000/svg" xmlns:xlink="http://www.w3.org/1999/xlink" viewBox="0 0 1155 853"><defs><style>.cls-1,.cls-2{isolation:isolate;}.cls-2{font-size:200px;font-family:HoeflerText-Regular, Hoefler Text;}.cls-2,.cls-7{fill:#333;}.cls-3{letter-spacing:-0.05em;}.cls-4,.cls-6{fill:none;stroke:#333;}.cls-4,.cls-5,.cls-6{stroke-miterlimit:10;}.cls-4{stroke-width:23px;}.cls-5{stroke:#0071bc;fill:url(#Ikke-navngivet_forløb_2);}.cls-6{stroke-width:8px;}</style><radialGradient id="Ikke-navngivet_forløb_2" cx="-229.26" cy="-893.47" r="72.03" gradientTransform="matrix(1.06, 0, 0, -1.06, 832.66, -533.8)" gradientUnits="userSpaceOnUse"><stop offset="0.38" stop-color="#00a99d"/><stop offset="1" stop-color="#0071bc"/></radialGradient></defs><title>CONTENT</title><g id="CONTENT" class="cls-1"><text class="cls-2" transform="translate(20 667.5)">CONTEN<tspan class="cls-3" x="928.59" y="0">T</tspan></text></g><g id="Tegnebræt_3" data-name="Tegnebræt 3"><g id="Lag_7" data-name="Lag 7"><path id="Path_15" data-name="Path 15" class="cls-4" d="M348.46,413.88a412,412,0,0,1,109.39-95.72c25-15.26,47.49-28.68,81-35.77,52.61-11.12,95.45,1.19,112.55,6.32,42.81,12.82,71.12,34.41,93.6,51.54a376,376,0,0,1,50.5,46.28,323.57,323.57,0,0,1-94.67,92.56c-11,7-34.39,21.62-63.11,30.51-81.58,25.25-159.52-10.27-188.28-25.25C449.44,484.35,340.05,424.4,348.46,413.88Z"/></g><g id="Lag_8" data-name="Lag 8"><ellipse id="Ellipse_1" data-name="Ellipse 1" class="cls-4" cx="577.5" cy="398.03" rx="109" ry="101"/></g><g id="Lag_9" data-name="Lag 9"><path id="Path_16" data-name="Path 16" class="cls-5" d="M514.5,437c-15-14.14-10.64-44-10-48,3.93-24.83,23-65.5,62-71,34.82-4.91,60.14,21.79,64,26,4.19,4.57,23,26.16,21,58-.34,5.38-2.33,28-20,47-21.55,23.2-57,30.91-64,22-2.92-3.7,1-7.79-2-19-1.29-4.87-4.39-16.56-12-19-9.94-3.18-18.42,12.35-31,9A18.16,18.16,0,0,1,514.5,437Z"/></g><g id="Lag_10" data-name="Lag 10"><path id="Path_17" data-name="Path 17" class="cls-6" d="M409.5,301c-11.17,4-25.6.17-35-9-6.68-6.52-16.25-21-10-32,3.88-6.82,13.43-11.55,20-9,6.94,2.7,4.34,11.12,13,23,9.25,12.69,21.12,15.31,20,21C416.84,298.38,412.21,300.05,409.5,301Z"/><path id="Path_18" data-name="Path 18" class="cls-7" d="M376.25,261c-1.66,1.14-1.68,4.69,0,6.77,1,1.25,3.17,2.61,5,1.69s2.16-3.42,1.67-5.08C382.06,261.42,378.1,259.68,376.25,261Z"/><path id="Path_19" data-name="Path 19" class="cls-7" d="M406.07,300.23a13.22,13.22,0,0,0-1.52-.44c-1.29-.32-17.62-5.17-20.4-16.35-.41-1.67-.84-3.38,0-3.88,3.62-2.14,25.4,21.49,24.84,22A22.56,22.56,0,0,0,406.07,300.23Z"/><path id="Path_20" data-name="Path 20" class="cls-6" d="M746.54,285c11.17,4,25.6.17,35-9,6.68-6.52,16.26-21,10-32-3.88-6.82-13.43-11.55-20-9-6.94,2.7-4.34,11.12-13,23-9.25,12.69-21.12,15.31-20,21C739.2,282.38,743.83,284.05,746.54,285Z"/><path id="Path_21" data-name="Path 21" class="cls-7" d="M779.79,245c1.66,1.14,1.68,4.69,0,6.77-1,1.25-3.16,2.61-5,1.69s-2.16-3.42-1.67-5.08C774,245.42,777.94,243.68,779.79,245Z"/><path id="Path_22" data-name="Path 22" class="cls-7" d="M750,284.23a13.83,13.83,0,0,1,1.52-.44c1.29-.32,17.62-5.17,20.4-16.35.41-1.67.84-3.38,0-3.88-3.62-2.14-25.4,21.49-24.84,22A19.69,19.69,0,0,1,750,284.23Z"/><ellipse id="Ellipse_2" data-name="Ellipse 2" class="cls-7" cx="524" cy="595.03" rx="18" ry="16.5"/><circle id="Ellipse_3" data-name="Ellipse 3" class="cls-7" cx="633.5" cy="595.03" r="16.5"/><ellipse id="Ellipse_4" data-name="Ellipse 4" class="cls-7" cx="574.5" cy="688.53" rx="18.5" ry="17"/></g><g id="Lag_11" data-name="Lag 11"><path id="Path_23" data-name="Path 23" class="cls-6" d="M473,259.53c-5.24,5.77-38.23-6.82-51-33-5.41-11.1-10.5-31.41-1-39,5.42-4.33,14.77-3.86,21,0,8.24,5.11,8.24,14.41,13,30C463.91,246.7,476.58,255.59,473,259.53Z"/><path id="Path_24" data-name="Path 24" class="cls-7" d="M436.39,217.59c-2.31,1.32,5.61,25,23.67,39.35,2.54,2,5.23,4.17,5.91,3.57C468.62,258.21,439.74,215.69,436.39,217.59Z"/><path id="Path_25" data-name="Path 25" class="cls-7" d="M431.87,208.36c4.07,2,8.89-1.5,9.13-4.22.35-4-9-9.4-11.74-7C427.26,198.86,427.31,206.17,431.87,208.36Z"/><path id="Path_26" data-name="Path 26" class="cls-6" d="M687.31,254.53c5.24,5.77,38.23-6.82,51-33,5.42-11.1,10.5-31.41,1-39-5.42-4.33-14.77-3.86-21,0-8.24,5.11-8.24,14.41-13,30C696.4,241.7,683.73,250.59,687.31,254.53Z"/><path id="Path_27" data-name="Path 27" class="cls-7" d="M723.92,212.59c2.31,1.32-5.61,25-23.67,39.35-2.54,2-5.23,4.17-5.91,3.57C691.69,253.21,720.57,210.69,723.92,212.59Z"/><path id="Path_28" data-name="Path 28" class="cls-7" d="M728.44,203.36c-4.07,2-8.89-1.5-9.13-4.22-.35-4,9-9.4,11.74-7C733.05,193.86,733,201.17,728.44,203.36Z"/></g><g id="Lag_12" data-name="Lag 12"><path id="Path_29" data-name="Path 29" class="cls-6" d="M536.08,227.53c-6.88,6.19-29.7-6.1-42.81-21.46-17.32-20.29-16.44-44.47-16.17-51.7.38-10.58,1-26.91,11.41-32.19,7.4-3.75,17.62-.87,23.79,4.88,8.5,7.93,7.13,19.34,8.56,35.11C524.64,204,543.07,221.28,536.08,227.53Z"/><path id="Path_30" data-name="Path 30" class="cls-7" d="M492.5,145c.06,4.63,6.05,8.78,10,7,2.82-1.27,4.48-5.5,3-9a7.17,7.17,0,0,0-9-4A6.61,6.61,0,0,0,492.5,145Z"/><path id="Path_31" data-name="Path 31" class="cls-7" d="M500.41,170.53c-7,4.5,2.85,40.64,24.49,56.76.78.58,6.84,5.06,8,4,1.32-1.18-6.81-8.4-13.47-22-6.13-12.52-9.19-18.78-9.39-26.84-.08-3.4.25-8.52-3-11C505.25,170.19,502.19,169.42,500.41,170.53Z"/><path id="Path_32" data-name="Path 32" class="cls-6" d="M625.57,225.53c6.88,6.19,29.7-6.1,42.81-21.46,17.32-20.29,16.44-44.47,16.17-51.7-.39-10.58-1-26.91-11.41-32.19-7.4-3.75-17.63-.87-23.79,4.88-8.51,7.93-7.13,19.34-8.56,35.11C637,202,618.58,219.28,625.57,225.53Z"/><path id="Path_33" data-name="Path 33" class="cls-7" d="M669.15,143c-.06,4.63-6,8.78-10,7-2.82-1.27-4.48-5.5-3-9a7.18,7.18,0,0,1,9-4A6.61,6.61,0,0,1,669.15,143Z"/><path id="Path_34" data-name="Path 34" class="cls-7" d="M661.24,168.53c7,4.5-2.85,40.64-24.49,56.76-.78.58-6.84,5.06-8,4-1.32-1.18,6.81-8.4,13.47-22,6.13-12.52,9.19-18.78,9.39-26.84.08-3.4-.25-8.52,3-11C656.4,168.19,659.46,167.42,661.24,168.53Z"/></g><g id="Lag_13" data-name="Lag 13"><path id="Path_35" data-name="Path 35" class="cls-6" d="M582,223.53c-2.77-.09-5.88-12.06-12-36a418.34,418.34,0,0,1-13-82c-1.09-18.83-.23-26,5-31,7.8-7.5,23.19-8.18,34-1,10.51,7,12.63,18.68,13,21C596.15,200,587.61,223.72,582,223.53Z"/><path id="Path_36" data-name="Path 36" class="cls-7" d="M578,86.07c-2.48,1.85-4.51,5.43-3.94,8.74,1.11,6.32,11.45,10.27,15.74,5.82,2.65-2.73,3.31-9,0-13.1A8.49,8.49,0,0,0,578,86.07Z"/><path id="Path_37" data-name="Path 37" class="cls-7" d="M581.55,116.85c-10.55,6.34-3.55,106.53.63,106.68,1.47.05,2.82-12,3.16-15.07,1.37-12.28.4-21.33,0-27.83-2-32.76,7.44-50.54,1.89-60.3C586,118.22,583.63,115.6,581.55,116.85Z"/></g></g></svg>
