<svg id="Lag_1" data-name="Lag 1" xmlns="http://www.w3.org/2000/svg" viewBox="0 0 1097 831"><defs><style>.cls-1,.cls-2{isolation:isolate;}.cls-2{font-size:200px;font-family:HoeflerText-Regular, Hoefler Text;}.cls-2,.cls-4,.cls-5{fill:#333;}.cls-3{letter-spacing:-0.05em;}.cls-4{stroke:#fff;stroke-miterlimit:10;}</style></defs><title>CV</title><g id="CV_" data-name="CV " class="cls-1"><text class="cls-2" transform="translate(398 759.74)">C<tspan class="cls-3" x="146.8" y="0">V</tspan></text></g><g id="Tegnebræt_6" data-name="Tegnebræt 6"><path id="Path_255" data-name="Path 255" class="cls-4" d="M429.62,223.64c-12.77-18.26-25.64-33.59-21.7-50.44C409,168.69,410,164.1,413,163c20.4-7.62,78.25,166.5,130.25,160.9,33.06-3.56,80.28-81.51,111.74-133.45,2.52-4.14,9.7-16.32,19.79-16.6,7-.2,15.33,5.27,15.33,10.22,0,3-3,5.11-3.83,5.75-3.15,2.38-25.09,34.15-69,97.69-24,34.74-36,52.12-44.7,74.7-20.84,54.1-16.85,107.11-12.76,146.21,5.2,49.8,20.36,96.62,3.83,106-8,4.51-19.41-1.85-21.71-3.19-25.54-15-1.79-64.44-8.1-146.65-1.74-22.57-3.87-50.33-16.17-84.49-14.63-40.6-39.38-78.37-58.74-107.9C448.63,256.35,440.46,239.13,429.62,223.64Z"/></g><g id="Tegnebræt_5" data-name="Tegnebræt 5"><path id="Path_11" data-name="Path 11" class="cls-5" d="M498,267c9.33,18.79,31.86,35.86,55,33.11,26.79-3.2,40.54-31.27,41.66-33.65,9.8-20.8,4-39-13.35-98.26C556.8,84.61,553.84,71.4,547.11,71.5c-8.46.13-10.21,21.11-31.51,93.46C496.29,230.53,487.9,246.67,498,267Z"/><path id="Path_12" data-name="Path 12" class="cls-5" d="M614.4,477.39c9.32,18.79,31.85,35.86,55,33.11,26.79-3.2,40.54-31.27,41.66-33.65,9.81-20.83,4-39-13.35-98.27-24.49-83.55-27.45-96.76-34.18-96.66-8.46.13-10.21,21.11-31.51,93.46C612.72,441,604.33,457.09,614.4,477.39Z"/><path id="Path_13" data-name="Path 13" class="cls-5" d="M385.29,473.11c9.32,18.8,31.85,35.87,55,33.12C467.08,503,480.83,475,482,472.58c9.81-20.83,4-39-13.35-98.27-24.48-83.56-27.45-96.76-34.18-96.66-8.46.13-10.2,21.11-31.51,93.46C383.61,436.68,375.22,452.82,385.29,473.11Z"/></g></svg>
