<svg id="Lag_1" data-name="Lag 1" xmlns="http://www.w3.org/2000/svg" viewBox="0 0 1406 853"><defs><style>.cls-1,.cls-2{isolation:isolate;}.cls-2{font-size:200px;font-family:HoeflerText-Regular, Hoefler Text;}.cls-2,.cls-4{fill:#333;}.cls-3{letter-spacing:-0.05em;}.cls-5{fill:#fff;}</style></defs><title>UX</title><g id="UX_" data-name="UX " class="cls-1"><text class="cls-2" transform="translate(672 608.5)">U<tspan class="cls-3" x="156.2" y="0">X</tspan></text></g><g id="Tegnebræt_4" data-name="Tegnebræt 4"><g id="Lag_15" data-name="Lag 15"><path id="Path_38" data-name="Path 38" class="cls-4" d="M615.13,118.11c9.84-2.1,22.7-2.6,31.58,3,8.22,5.17,12,15.11,14.81,24,.4,1.27.8,2.55,1.18,3.85.21.67.41,1.36.63,2,.06.53.17.56.33.08l.56-.57a10.62,10.62,0,0,1-1.27.72c-.93.47-1.9.8-2.84,1.26a15.15,15.15,0,0,0-5.32,4.64,7.76,7.76,0,0,1-1.56,1.86c.94-.63-.31.19-.73-.08-1.27-.81-2-2.53-3-3.67a13.28,13.28,0,0,0-6.33-4c-5.76-1.81-12-2.7-17.92-4-7.14-1.57-10.2,9.41-3,11,5.65,1.27,11.39,2.28,17,3.75,1.74.46,2,1.26,3.1,2.67a12.9,12.9,0,0,0,6.32,5,12.66,12.66,0,0,0,13.3-3.29c1.26-1.34,1.94-2.92,3.54-3.84s3.28-1.36,4.77-2.37c4.82-3.26,5.17-8.48,3.64-13.66A135.91,135.91,0,0,0,668.47,131c-3.83-8.78-10.13-17.29-19-21.36-11.44-5.21-25.2-5.06-37.28-2.47-7.17,1.53-4.13,12.51,3,11Z"/><path id="Path_39" data-name="Path 39" class="cls-4" d="M639.28,169.91c-.93,10.48-1.37,21.25,3.68,30.85A28.38,28.38,0,0,0,664.75,216a23.94,23.94,0,0,0,23.64-12.66c5.11-9.43,4.48-20.26,3-30.54-1.52-10.83-7.55-20.58-19-22.65-3-.54-6.14.83-7,4-.76,2.76.94,6.46,4,7,9.57,1.72,10.83,10.7,11.51,19,.64,7.83.34,18.27-7.25,22.92-6.63,4.06-15,.5-19.15-5.32-5.8-8.06-4.64-18.58-3.8-27.89.28-3.07-2.81-5.7-5.7-5.7-3.31,0-5.42,2.61-5.7,5.7Z"/><path id="Path_40" data-name="Path 40" class="cls-4" d="M685.42,202.75c4.71,7.07,6.26,15.19,6.33,23.6a117,117,0,0,1-.75,13.5c-.41,3.87-.71,8-2.11,11.66-1.27,3.27-3.64,4.75-6.85,5.83-2.25.76-4.52,1.41-6.77,2.12-.8.24-2.68.45-3.28,1-.9.84-.07-.23.53.5-.4-.48-.9-.9-1.32-1.35a46,46,0,0,1-10.76-20.06,46.74,46.74,0,0,1,.87-26.28c2.27-7-8.73-10-11-3a58.79,58.79,0,0,0,12.83,57.43c2.06,2.2,4.43,4.32,7.6,4.46s6.26-1.3,9.2-2.22c5.2-1.61,10.68-3,14.76-6.86,3.8-3.61,5.63-8.86,6.49-13.92A152.06,152.06,0,0,0,703,233.1c.72-12.46-.64-25.5-7.72-36.13-4-6.07-13.93-.38-9.84,5.76Z"/><path id="Path_41" data-name="Path 41" class="cls-4" d="M653.13,252.91c-11.24,3.7-16.39,14.42-18.32,25.38a145.71,145.71,0,0,0-2,18.65c-.24,5.55.36,11.3,4.43,15.47,3.76,3.8,9.25,5.46,14.07,7.44,5,2,10.56,5.31,16.08,5.28,6.85,0,10.07-5.54,13.39-10.63,3.17-4.84,6.61-9.63,9.2-14.83a41.42,41.42,0,0,0,.26-36.79c-1.33-2.78-5.3-3.51-7.79-2-2.85,1.66-3.38,5-2,7.79,4.56,9.57,3,19.94-2.19,28.84-2.76,4.7-5.88,9.2-8.86,13.74-1.63,2.48-1.57,2.9-4.43,2-2.5-.84-4.91-2-7.34-3s-5.07-2-7.6-3.12c-1.64-.7-3.88-1.49-5-3s-.94-3.74-.91-5.53c.05-2.81.27-5.64.53-8.44.8-8.48,1.72-23,11.53-26.2,6.93-2.29,4-13.29-3-11Z"/><path id="Path_42" data-name="Path 42" class="cls-4" d="M632,291.34c-11.7,5.58-18.85,17-23,28.91a96.6,96.6,0,0,0-4.84,19.68c-.81,6.66,1.66,12.85,7.84,16,5.07,2.54,10.55,3.23,15.19,6.73,4.43,3.35,7,8.5,11.35,11.86,12.12,9.3,24.6-3.6,30.93-13.43a59.82,59.82,0,0,0,9-39.66c-.41-3-2.33-5.7-5.7-5.7-2.77,0-6.1,2.62-5.7,5.7a49.58,49.58,0,0,1-4,27.8,48.94,48.94,0,0,1-8,12.08c-2.17,2.35-6,6.65-9.49,4.33s-5.66-6.88-8.8-9.75a38.84,38.84,0,0,0-13.51-8c-3.12-1.07-7.8-1.35-7.89-5.4a28.55,28.55,0,0,1,1.21-6.8c.68-2.91,1.4-5.81,2.25-8.68,3.16-10.6,8.53-20.88,18.92-25.82,2.78-1.32,3.5-5.3,2-7.79-1.66-2.84-5-3.38-7.8-2Z"/><path id="Path_43" data-name="Path 43" class="cls-4" d="M607,338.88c-7.82-1.9-15.27.26-22.22,3.93-6.13,3.28-12.92,7.25-17.26,12.77-8.4,10.62-6.87,25.56-2.15,37.43,2.68,6.75,6.23,12.71,13,16,6.58,3.16,13.68,5.13,20.32,8.22,7,3.28,13.46,7.49,20.31,11.06,7,3.65,14.53,3.8,20.85-1.27s8.45-13.37,9.62-21.16a134.75,134.75,0,0,0,1.35-27.66c-.41-7.29-11.81-7.34-11.4,0a128.73,128.73,0,0,1-.28,19c-.52,5.71-1,12.25-3.67,17.39-2.18,4.24-5.75,6.21-10.22,4.09-5.7-2.69-10.94-6.44-16.59-9.27a185.14,185.14,0,0,0-17.47-7.6c-4.8-1.8-10.05-3-12.83-7.68-4.53-7.69-7.6-19.3-4.1-27.91,2.14-5.24,7.24-8.13,11.83-11,5.25-3.25,11.46-6.92,17.86-5.36,7.12,1.74,10.13-9.24,3-11Z"/><path id="Path_44" data-name="Path 44" class="cls-4" d="M540,409.15c-2-5.34.63-10.82,5-14.22,5.21-4.13,12.16-5.5,18.5-6.87,6-1.27,3.44-10.44-2.53-9.15-8.53,1.84-17.57,4.17-24,10.47-5.77,5.65-9,14.45-6.12,22.29,2.1,5.7,11.28,3.23,9.16-2.53Z"/><path id="Path_45" data-name="Path 45" class="cls-4" d="M649.3,380.33c.5,8.66,1.1,18-3.73,25.62-5,7.82-10.9,15.16-16.36,22.65-1.52,2.09-.33,5.28,1.7,6.5,2.39,1.43,5,.36,6.5-1.7l9.28-12.76c2.77-3.8,5.85-7.55,8.16-11.67,4.81-8.6,4.5-19.09,3.94-28.64C658.43,374.25,648.93,374.22,649.3,380.33Z"/><path id="Path_46" data-name="Path 46" class="cls-4" d="M571.11,514c28.29-19.84,56.84-46.13,58.52-83.09.22-4.88-7.38-4.87-7.6,0-1.55,34-28.85,58.36-54.76,76.54C563.3,510.26,567.09,516.85,571.11,514Z"/><path id="Path_47" data-name="Path 47" class="cls-4" d="M620.92,426q-24,25-47.93,50.06c-13.61,14.15-27.77,28.31-45.24,37.65-9.4,5-20,8.12-27.45,16.15-3.32,3.57,2,9,5.37,5.37,6.46-7,15.77-9.79,24-14a130.64,130.64,0,0,0,24.61-16.72c16-13.44,30-29.32,44.47-44.41l27.52-28.76c3.38-3.53-2-8.91-5.37-5.37Z"/><path id="Path_48" data-name="Path 48" class="cls-4" d="M532.87,414A46.9,46.9,0,0,0,544,428c5.16,4.37,10.93,6.73,16.91,9.72,10.65,5.31,18.8,14.84,31.32,15.74,4.88.36,4.85-7.24,0-7.6-10.58-.76-18.43-10.19-27.48-14.71-5.18-2.58-10.49-4.49-15-8.22a41,41,0,0,1-10.31-12.84c-2.26-4.34-8.82-.5-6.56,3.84Z"/><path id="Path_49" data-name="Path 49" class="cls-4" d="M590.06,450a6,6,0,0,0,3.12,6.83c2.32,1.2,5.7,1.2,7.45-1.05a4.14,4.14,0,0,0,1.11-2.69,3.89,3.89,0,0,0-1.11-2.68c-1.36-1.27-4.07-1.67-5.37,0-.56.71.63-.3.15-.05.64-.24.83-.33.54-.24s-.1.06.63-.07h-.32c.7.12.9.14.59.08l-.25-.06c-.36-.13-.22-.07.43.2a1.79,1.79,0,0,0-.44-.27c.53.43.67.52.39.27s-.16-.16.28.38c-.32-.51.25.94.12.32.07.75.1.93.08.54q-.21,1.09-.06.51a3.8,3.8,0,0,0-7.32-2Z"/><path id="Path_50" data-name="Path 50" class="cls-4" d="M595.73,462.32l2.7,10.16c1.27,4.72,8.6,2.72,7.32-2L603,460.33c-1.26-4.71-8.6-2.71-7.32,2Z"/><path id="Path_51" data-name="Path 51" class="cls-4" d="M511.46,435.27c-1.82-11.82,11.76-17.4,20.92-19.2,4.8-.94,2.76-8.26-2-7.32-14.06,2.75-28.75,12.26-26.23,28.53C504.88,442.1,512.2,440.05,511.46,435.27Z"/><path id="Path_52" data-name="Path 52" class="cls-4" d="M503.08,437.87C504.65,452.34,517,463,529.38,469c14.25,6.87,30,8.72,45.57,10.45,4.85.54,4.81-7.05,0-7.6-13.44-1.5-27.33-3-39.83-8.54-10.27-4.55-23.12-13.23-24.45-25.44C510.14,433.06,502.54,433,503.08,437.87Z"/><path id="Path_53" data-name="Path 53" class="cls-4" d="M480.35,454.19a136.53,136.53,0,0,0,26.72-15.53c3.83-2.93.05-9.53-3.8-6.55a136,136,0,0,1-26.72,15.52c-4.43,2-.59,8.57,3.83,6.56Z"/><path id="Path_54" data-name="Path 54" class="cls-4" d="M472.33,456a77.47,77.47,0,0,0,58.09,35.58c5,.5,10,.63,14.91,1.33s9.64,1.79,14.42,2.89,6.79-6.23,2-7.33a180.87,180.87,0,0,0-27-4.11,77.7,77.7,0,0,1-22.67-4.84,70,70,0,0,1-33.19-27.36C476.27,448,469.69,451.79,472.33,456Z"/><path id="Path_55" data-name="Path 55" class="cls-4" d="M473.74,449.16c-4.52,1.23-8.49,4.29-11.74,7.6-3.45,3.51-4.08,7.69-3.86,12.43s7.84,4.9,7.6,0c-.15-3.21-.13-5.42,2.31-7.69,2.27-2.1,4.68-4.18,7.72-5,4.71-1.27,2.72-8.61-2-7.32Z"/><path id="Path_56" data-name="Path 56" class="cls-4" d="M459.63,472.71a48.25,48.25,0,0,0,29.45,28.53c7.66,2.58,15.79,3.36,23.46,6.07A95.51,95.51,0,0,1,535.14,519c4,2.8,7.82-3.8,3.79-6.56a103,103,0,0,0-20.25-10.92c-7.33-3-14.83-4.53-22.5-6.24-13.13-2.94-24.34-11.92-29.24-24.62-1.74-4.52-9.08-2.53-7.32,2Z"/><path id="Path_57" data-name="Path 57" class="cls-4" d="M570.14,507.62a47.69,47.69,0,0,0-20,9.14c-5.57,4.19-11.34,9.5-18.7,9.63l3.8,3.8a69.92,69.92,0,0,1,.14-9.49c.4-4.87-7.2-4.84-7.6,0a69.92,69.92,0,0,0-.14,9.49,3.86,3.86,0,0,0,3.8,3.8c7.68-.14,14-4.1,19.87-8.63,6.47-5,12.77-8.86,20.89-10.41,4.8-.9,2.77-8.23-2-7.32Z"/><path id="Path_58" data-name="Path 58" class="cls-4" d="M460.16,460.73c-9.22,1.27-18.55,4.88-19.36,15.48a39.84,39.84,0,0,0,1.64,14.88c1.54,4.57,4.71,8.23,7.8,11.82a39.1,39.1,0,0,0,11,9.12c4.39,2.39,9.11,4.16,13.63,6.29,4.9,2.3,9.72,4.77,14.52,7.29,2.38,1.26,4.78,2.47,7.13,3.8,1.52.85,3.4,1.78,4,3.54,1.53,4.62,8.86,2.64,7.32-2-1.16-3.5-3.6-5.81-6.73-7.66-3.93-2.32-8.1-4.34-12.15-6.43-4.29-2.2-8.6-4.34-13-6.33-4.12-1.9-8.38-3.49-12.28-5.81s-6.62-5.43-9.43-8.79c-3-3.57-5-7-5.48-11.7-.42-3.71-1.4-8.86,1.32-11.88,2.92-3.27,8.05-3.7,12.11-4.26,2.05-.28,3.13-2.87,2.65-4.67-.57-2.2-2.64-2.93-4.67-2.65Z"/><path id="Path_59" data-name="Path 59" class="cls-4" d="M422.39,500.44c.59-4.2,5.55-6.11,8.37-8.76s5.7-7.09,10.21-6.9c4.88.21,4.87-7.39,0-7.6-6.43-.27-10.6,4.2-14.8,8.37s-10.2,6.52-11.1,12.87c-.29,2,.5,4.05,2.65,4.67C419.49,503.6,422.1,502.46,422.39,500.44Z"/><path id="Path_60" data-name="Path 60" class="cls-4" d="M417.49,502c2.32,8.45,7.72,16.53,15.72,20.5,4.83,2.41,9.9,2.07,14.9,3.69,4.7,1.52,8.54,4.9,11.83,8.47,3.7,4,6.71,8.64,10.47,12.6s8.3,2.81,13,1.78a55,55,0,0,0,25.88-13.88c3.57-3.36-1.81-8.73-5.36-5.37a47.62,47.62,0,0,1-22.54,11.91c-1.1.24-4,1.19-5.07.75-.75-.3-1.52-1.7-2.07-2.34-.88-1.05-1.73-2.12-2.58-3.17a90.65,90.65,0,0,0-9.38-10.68,34.28,34.28,0,0,0-10.23-6.67c-4.35-1.76-9.07-1.41-13.44-3-7.17-2.59-11.86-9.53-13.8-16.62-1.27-4.7-8.62-2.71-7.32,2Z"/><path id="Path_61" data-name="Path 61" class="cls-4" d="M630,425.34a19.3,19.3,0,0,0-5.6,13.93c.07,4.88,7.67,4.9,7.6,0a11.49,11.49,0,0,1,3.37-8.53c3.43-3.49-1.93-8.86-5.37-5.37Z"/><path id="Path_62" data-name="Path 62" class="cls-4" d="M570.77,489.23a19.11,19.11,0,0,1,3.28,9.85c.21,4.87,7.81,4.9,7.6,0a26.72,26.72,0,0,0-4.32-13.69C574.66,481.32,568.08,485.13,570.77,489.23Z"/><path id="Path_63" data-name="Path 63" class="cls-4" d="M553.43,502.61a41.8,41.8,0,0,1-.2,10.06c-.3,2,.51,4.09,2.65,4.67,1.8.5,4.37-.63,4.67-2.65a49.35,49.35,0,0,0,.47-12.08,3.89,3.89,0,0,0-3.8-3.8C555.33,498.81,553.25,500.56,553.43,502.61Z"/><path id="Path_64" data-name="Path 64" class="cls-4" d="M472,452.28c8.32-12.22,15.43-25.32,20.17-39.36a110.13,110.13,0,0,0,5-21.59,90.42,90.42,0,0,0,.74-9.73c.08-3.48.3-7.49-1.23-10.72-2.84-6-10.57-7-16.27-5-6.6,2.33-10.92,7.87-14.56,13.57-7.81,12.25-15.88,25.32-18.89,39.7-1.59,7.6-2.21,16.31.89,23.63,3,7,9.6,11.43,17.24,10.18,4.81-.79,2.76-8.11-2-7.32-5.45.88-8.54-5.2-9.36-9.59-1-5.57-.3-11.57,1.06-17,2.94-11.79,9.3-22.36,15.65-32.58,2.86-4.61,5.74-9.95,10.69-12.63,2-1.08,4.58-1.81,6.85-1.1,2.7.85,2.34,3.74,2.36,6.1A98.68,98.68,0,0,1,484.1,413c-4.51,12.66-11.15,24.41-18.68,35.48-2.76,4.05,3.8,7.86,6.55,3.8Z"/><path id="Path_65" data-name="Path 65" class="cls-4" d="M499.27,380.62c3.57-4.44,3.9-11.07-.33-15.3s-10.84-3.9-15.3-.33c-1.6,1.26-1.34,4,0,5.37a3.92,3.92,0,0,0,5.37,0c3-2.4,7.29,1.9,4.9,4.89-1.27,1.6-1.57,3.8,0,5.37C495.23,381.94,498,382.23,499.27,380.62Z"/><path id="Path_66" data-name="Path 66" class="cls-4" d="M489.53,366.13c-.63-7.47,1.75-16.32-4.86-21.89-2.91-2.46-6.7-2.86-10.35-3.16-4.09-.34-8.23-.21-12,1.65-7.8,3.88-7.18,11.82-6.15,19.17.49,3.54.2,7.16,2.34,10.22a11.31,11.31,0,0,0,9,4.73c4.89.23,4.88-7.37,0-7.6a3.47,3.47,0,0,1-3.35-3.26c-.4-2.33-.46-4.79-.8-7.14-.63-4.48-.86-8.91,4.51-10.08,3.52-.77,11-.95,13,2.71,2.33,4.22.63,10.06,1,14.65.41,4.83,8,4.87,7.6,0Z"/><path id="Path_67" data-name="Path 67" class="cls-4" d="M453.35,355.47a30.29,30.29,0,0,0-9.63,11.88c-1.9,4.3-3.64,10.2-1.15,14.6,2.11,3.74,8.23,6.77,12.43,5.33,5-1.68,7.06-8.64,8.79-13,1.8-4.54-5.55-6.52-7.33-2-.59,1.51-1.25,3-2,4.43-.31.63-1.16,3.06-1.9,3.32-.54.19-2.53-.87-2.92-1.27-1-1.08-.68-2.53-.43-3.85a21.53,21.53,0,0,1,8-12.86c3.8-2.93.05-9.53-3.83-6.55Z"/><path id="Path_68" data-name="Path 68" class="cls-4" d="M451,385.17c-.53,6.76,1.9,15.9-2.69,21.67-3,3.8,2.33,9.19,5.37,5.37,6.44-8.07,4.16-17.52,4.91-27,.38-4.88-7.21-4.85-7.6,0Z"/><path id="Path_69" data-name="Path 69" class="cls-4" d="M449.25,448.56a37.29,37.29,0,0,1-4.37,17.21c-2.29,4.32,4.26,8.16,6.56,3.84a45.64,45.64,0,0,0,5.4-21.05c.07-4.89-7.53-4.89-7.6,0Z"/><path id="Path_70" data-name="Path 70" class="cls-4" d="M430.7,482.53c-1.23-6.41-1.46-12.34,1.06-18.48,2.07-5,5.18-9.54,7.87-14.22a124.38,124.38,0,0,0,12.85-32.22c1.17-4.75-6.15-6.77-7.32-2a124,124,0,0,1-14.31,34.18c-2.91,4.87-5.85,9.85-7.49,15.32-1.94,6.48-1.27,13,0,19.52.92,4.8,8.23,2.76,7.33-2Z"/><path id="Path_71" data-name="Path 71" class="cls-4" d="M422,466.35c-7.5-.16-.5-15.83.39-19,2.2-7.84,3.27-15.78,4.47-23.81,1.05-7,2.67-14.08,7.55-19.52s11-8.86,17.09-12.38c4.24-2.43.42-9-3.8-6.55-7.34,4.21-14.86,8.68-20.18,15.42-5.76,7.31-7.32,16.21-8.53,25.2a145.59,145.59,0,0,1-2.67,14.94c-1.2,5-3,9.78-4.36,14.73-2.11,7.8.3,18.36,10.08,18.54,4.89.1,4.89-7.49,0-7.6Z"/><path id="Path_72" data-name="Path 72" class="cls-4" d="M442.83,370.49c-8.42-1.59-23.73-3.86-26.69,7.12-1.2,4.43-1.17,10.57.64,14.87,2,4.75,7.86,5.87,12.19,7.6,4.53,1.83,6.5-5.52,2-7.33-2.06-.82-6.39-1.6-7.35-3.68-1.08-2.34-.91-7-.15-9.46.86-2.74,3.75-2.53,6.25-2.64a49.79,49.79,0,0,1,11.1.83c4.77.9,6.82-6.42,2-7.33Z"/><path id="Path_73" data-name="Path 73" class="cls-4" d="M415.91,391c-6.78,1.76-14.73,4.7-17.18,12-1.55,4.62.1,9.2,1,13.76a61.55,61.55,0,0,1,1,14.72c-.41,9.82-2.53,19.45-4.5,29.05-1,4.93-2,9.86-2.7,14.84-.64,4.43-1.52,9.17-1.14,13.65.93,11.07,13.71,13.55,22.78,14.25,4.88.37,4.85-7.23,0-7.6-4.2-.32-10.56-1-13.83-4-3.12-2.89-1-10.61-.5-14.26,1.49-10.33,4.07-20.46,5.77-30.76,1.65-10,2.47-20.12.79-30.2-.71-4.23-3.46-9.74.05-13.34,2.67-2.75,6.93-3.8,10.51-4.74,4.72-1.23,2.72-8.56-2-7.32Z"/><path id="Path_74" data-name="Path 74" class="cls-4" d="M405.79,490.66c-.52-5.59.68-11.85,6-14.69,2.73-1.44,5.3-3,5.75-6.33a6,6,0,0,0-4.2-6.64,3.71,3.71,0,0,0-3.7,1,67.71,67.71,0,0,0-6.64,9.65c-1.71,3-4,7.49-.07,9.92,7.14,4.38,9.3-7.82,13.17-10.5,3-2.1,2-7-1.9-7.08-5.7-.12-10.66,3.53-13.05,8.58-2.85,6-1.8,12.72-.45,18.95,1,4.77,8.35,2.76,7.32-2-1.19-5.51-2.84-18.1,6.18-17.91l-1.9-7.08a15.47,15.47,0,0,0-4.59,5c-.57,1-1.05,2-1.59,3-.27.49-.56,1-.86,1.45-.82.8-.39,1.11,1.3.92l1.74,2.27c.16.91,1.27-1.65,1.27-1.62.52-.94,1.07-1.87,1.65-2.78a56.81,56.81,0,0,1,3.8-5.34l-3.7,1c-.32-2-1-2.49-2.09-1.53l-1.69.84a17.29,17.29,0,0,0-6.95,7.37,25.1,25.1,0,0,0-2.42,13.67c.45,4.82,8.06,4.87,7.6,0Z"/><path id="Path_75" data-name="Path 75" class="cls-4" d="M417.93,382.41c-1.5-5.31-6.39-7.66-11.6-7.84-4.49-.15-9.92.77-12.59,4.78s-2.58,10.54-2.35,15.08c.29,5.34,3.43,10.13,9.17,10.3,4.88.12,4.88-7.47,0-7.6-2.6-.07-1.76-11.36-.78-13.09,1.58-2.78,9.89-2.93,10.82.38,1.32,4.7,8.66,2.7,7.32-2Z"/><path id="Path_76" data-name="Path 76" class="cls-4" d="M391.37,479.77l-5.39,9c-1.43,2.39-2.67,5.52-5.29,6.76-3.67,1.75-1.52,6.86,1.9,7.08q10.31.67,20.65.42c4.88-.12,4.9-7.72,0-7.6q-10.33.26-20.65-.42l1.9,7.08c3.22-1.54,5.06-4.52,6.81-7.48q3.33-5.5,6.63-11.05c2.53-4.2-4.06-8-6.56-3.8Z"/><path id="Path_77" data-name="Path 77" class="cls-4" d="M391.19,491.87a1.07,1.07,0,0,1-.1.36l.38-.91a1.86,1.86,0,0,1-.3.53l.6-.77a2.55,2.55,0,0,1-.44.43l.77-.59a2.86,2.86,0,0,1-.54.3l.91-.38a2.75,2.75,0,0,1-.47.13l1-.13h-.36A3.91,3.91,0,0,0,390,492a3.79,3.79,0,0,0,2.69,6.48,6.07,6.07,0,0,0,5.88-4.55,4,4,0,0,0-.38-2.93,3.8,3.8,0,0,0-6.94.91Z"/><path id="Path_78" data-name="Path 78" class="cls-4" d="M385.17,495.55l.34-54.43c0-3.67-.16-7.51.85-11.08,1.09-3.85,3.8-6.13,7-8.39,6.15-4.43,11.77-9.61,10.53-17.86-.73-4.82-8.05-2.77-7.33,2,.57,3.74-3.6,6.8-6.21,8.69s-5.53,3.84-7.66,6.45c-4.94,6.07-4.7,14-4.75,21.42l-.33,53.21c0,4.88,7.56,4.89,7.6,0Z"/><path id="Path_79" data-name="Path 79" class="cls-4" d="M394.24,392.49c-5.55-1.62-11.66-3.24-17.37-1.41-4.72,1.5-8.9,5.06-10,10-.63,2.89-.37,6-.44,8.95a11.59,11.59,0,0,0,2,7.17c3.28,4.72,8.77,6.15,14.16,7,4.78.74,6.84-6.57,2-7.33-3.17-.48-7.09-.83-9.39-3.27-1.18-1.26-1.21-2.49-1.16-4.14a51,51,0,0,1,.15-6.3c1.31-8,13.07-4.79,18-3.36,4.7,1.38,6.71-6,2-7.33Z"/><path id="Path_80" data-name="Path 80" class="cls-4" d="M369.74,395c-6.55-.88-15.19-2.4-21.35.72-5.77,2.92-6.8,9.5-6.62,15.38.22,6.92,4.17,10.12,10.76,11.14s14,.73,18.68-4.81c3.16-3.71-2.21-9.1-5.38-5.37-2.88,3.4-7.19,3.45-11.33,2.85-1.26-.17-3.33-.27-4.37-1.11s-.83-3.17-.81-4.53c0-3.52.63-6.75,4.57-7.4,4.43-.72,9.42-.14,13.81.45,2,.28,4.05-.49,4.67-2.65.51-1.76-.63-4.39-2.65-4.67Z"/><path id="Path_81" data-name="Path 81" class="cls-4" d="M378.56,497.06a189.29,189.29,0,0,1-19.37,11.77l5.2,1.36c-2.65-5.23-1.68-12.07-1.68-17.72V472.25c0-5.35-.1-11.43,3.73-15.64,4.28-4.72,10.41-8.27,15.49-12.1,3.86-2.9.08-9.49-3.83-6.55l-9.46,7.11c-2.72,2-5.7,4-7.93,6.58-4.56,5.2-5.49,11.86-5.58,18.55-.11,7.63,0,15.26,0,22.89,0,7.1-.58,14.44,2.71,21a3.86,3.86,0,0,0,5.2,1.37,191.18,191.18,0,0,0,19.37-11.78c4-2.76.2-9.34-3.84-6.56Z"/><path id="Path_82" data-name="Path 82" class="cls-4" d="M373.4,443.47c1.66-6.15-4.6-10.22-9.75-11.6a35,35,0,0,0-9.12-1c-2.86,0-6-.09-8.44,1.52-4.89,3.16-4.37,10.57-2.27,15.19a17.27,17.27,0,0,0,12.77,10c4.79.74,6.84-6.58,2-7.32a10,10,0,0,1-7-4.17c-1-1.42-2.88-5.52-1.43-7.19,1-1.2,6.66-.44,8.22-.3a17.34,17.34,0,0,1,4.56,1c.5.19,3.22,1.46,3.11,1.85-1.27,4.73,6.06,6.75,7.32,2Z"/><path id="Path_83" data-name="Path 83" class="cls-4" d="M345.32,435.66c-7.74-1.18-15.73-2.2-23.58-2-7.26.17-11.29,5.38-10.3,12.5,1,7.34,5.87,11.49,13.05,12.38a95.24,95.24,0,0,0,11.2.55c3.52,0,7.12.11,10.21-1.84,4.12-2.6.31-9.18-3.84-6.55-1.8,1.14-4.31.81-6.37.8q-3.81,0-7.6-.24c-4.53-.28-8.46-.87-9.19-6.11-.26-1.9-.21-3.48,1.87-3.86s4.62,0,6.71.12A155.19,155.19,0,0,1,343.3,443c4.79.73,6.84-6.59,2-7.32Z"/><path id="Path_84" data-name="Path 84" class="cls-4" d="M586.58,503.74c6.88,2.36,14.06,1.94,21.19,1.21a83.3,83.3,0,0,1,11.49-.8c3.82.15,5.17,3.16,5.92,6.49a24.55,24.55,0,0,1,.75,4.51c.05,1.82-.64,2.17-2.25,2.75a18,18,0,0,1-8.82,1.12c-6.4-1.14-7.07-8.45-7.39-13.74-.3-4.86-7.89-4.89-7.6,0,.51,8.4,2.53,17.9,11.67,20.74,6.9,2.14,20.57.19,21.86-8.53.64-4.14-.63-9.56-2.4-13.29a12.71,12.71,0,0,0-10.58-7.57c-10.72-.93-21.27,3.42-31.82-.21-4.64-1.58-6.62,5.75-2,7.33Z"/><path id="Path_85" data-name="Path 85" class="cls-4" d="M626.88,504.13c2.4,3.9,5.84,6.67,9.66,9.12,1.73,1.12,3.58,2.08,5.22,3.33a13.1,13.1,0,0,1,3.71,5.26,139.64,139.64,0,0,1,6.26,14.56c1.35,3.91,4,10.32,2.53,14.48-.64,1.8-2.16,2.86-3.27.89-1-1.7-.63-3.94-.63-5.8a19.91,19.91,0,0,0-4.18-12.44,36.56,36.56,0,0,0-9-7.7c-4-2.61-8.23-5.23-13.19-5.24s-4.89,7.6,0,7.6c4.63,0,10.4,4.43,13.75,7.45,4.26,3.8,4.8,7.15,5,12.66.2,4.68,1.77,10.13,6.72,11.8,4.6,1.57,9.33-1.14,11.39-5.33,2.33-4.73,1-10.54-.27-15.39A105.45,105.45,0,0,0,654,522.22c-2.26-4.91-4.19-9.3-8.76-12.47-4.19-2.89-9-5-11.8-9.49-2.54-4.16-9.14-.35-6.56,3.83Z"/><path id="Path_86" data-name="Path 86" class="cls-4" d="M658.68,554c1.07,16.68-2.66,33.07-3.27,49.68-.25,6.89-.63,15.19,3,21.33,3.36,5.62,10,8.13,16,5.41l-5.7-3.28c.83-1,.82-1.2,0-.67a16.9,16.9,0,0,1-1.9.43,6.83,6.83,0,0,1-3.24,0c-1.79-.64-2.88-2.49-3.53-4.17-1.9-4.9-.82-10.9-1.64-16-.76-4.82-8.09-2.77-7.32,2,1.3,8.19-.83,17.6,6.65,23.47,4.94,3.88,18.89,3.63,18.6-5-.1-3.08-3.1-4.43-5.7-3.28-2,.89-4.33-.81-5.41-2.33-1.48-2.1-1.9-4.89-2.1-7.39a118.87,118.87,0,0,1,.53-20c1.27-13.35,3.47-26.64,2.61-40.1-.32-4.85-7.91-4.88-7.6,0Z"/><path id="Path_87" data-name="Path 87" class="cls-4" d="M663.85,626.58c-4.09-.3-5.26-5.7-6-8.87-.49-2.1-1.14-4.1,0-6.05,1-1.71,2.25-2.84,3-4.76s-.86-4.15-2.65-4.67c-2.18-.63-3.88.77-4.67,2.65-.57,1.37-2.07,2.39-2.79,3.71a10.32,10.32,0,0,0-1.17,4.37c-.19,3.26.76,6.87,1.74,10,1.9,6,5.95,10.76,12.49,11.26,4.88.35,4.85-7.24,0-7.6Z"/><path id="Path_88" data-name="Path 88" class="cls-4" d="M642.46,559.39c-.15,8.71-.5,17.44-.47,26.15,0,3.1.53,6.19,3.17,8.13s6.9,2.28,10.12,3c4.76,1.05,6.8-6.26,2-7.33l-4.2-.93c-.73-.17-2.93-.26-3.48-.85-.39-.41,0-2.82,0-3.28,0-1.66,0-3.32.09-5l.35-19.92c.09-4.89-7.51-4.89-7.6,0Z"/><path id="Path_89" data-name="Path 89" class="cls-4" d="M643.37,592.16a103.76,103.76,0,0,0,1.13,23.42c.51,3.2,1.13,6,4,7.82s4.75,3.21,5.63,6.57c1.27,4.72,8.59,2.71,7.33-2a17.26,17.26,0,0,0-4.09-7.47,16.61,16.61,0,0,0-3.16-2.57c-1.75-1.13-1.9-1-2.26-3.17a94,94,0,0,1-1-22.6c.32-4.88-7.28-4.86-7.6,0Z"/><path id="Path_90" data-name="Path 90" class="cls-4" d="M659.83,626.44c-2.21-1.9-7.08-4.43-6.22-7.9,1.17-4.74-6.15-6.77-7.33-2a11,11,0,0,0,1.36,8.86c1.73,2.56,4.48,4.43,6.82,6.43,3.7,3.16,9.1-2.2,5.37-5.37Z"/><path id="Path_91" data-name="Path 91" class="cls-4" d="M548.74,531.31c4.59,2.91,9.89,3.08,15.19,3.2s11.65,1.09,16.79-.76c10.36-3.75,11.6-15.63,10-25-.82-4.81-8.13-2.77-7.32,2,1.11,6.54.37,15.82-8,16.31-4,.24-8.07-.09-12-.18-3.75-.08-7.46-.08-10.72-2.14-4.14-2.62-8,4-3.83,6.55Z"/><path id="Path_92" data-name="Path 92" class="cls-4" d="M587.18,513.52c4.9,0,4.9-7.6,0-7.6S582.29,513.52,587.18,513.52Z"/><path id="Path_93" data-name="Path 93" class="cls-4" d="M599.64,508.75c-4-3.45-8.72-4.58-13.82-5.27v7.32a9.84,9.84,0,0,1,6.76.41l.8.42c1,.8,1,.61.17-.55l1-3.7c-1.39,1.71-4,3-5.84,4.28-2.54,1.77-2.49,6.11.91,7a18.66,18.66,0,0,0,11-.47c4.56-1.65,2.6-9-2-7.33a11.27,11.27,0,0,1-6.93.48l.9,7c3.56-2.53,12.25-7,6.57-11.84-4.12-3.54-10.19-4.27-15.28-2.91-3.35.91-3.88,6.8,0,7.33,3.55.48,7.64.87,10.46,3.33,3.67,3.2,9.06-2.16,5.37-5.38Z"/><path id="Path_94" data-name="Path 94" class="cls-4" d="M603.13,525.68v28.81a31.8,31.8,0,0,0,0,5.52v1.23c.51-.33.56-.43.16-.3a5.13,5.13,0,0,1-1.51.1,15.92,15.92,0,0,1-5.06-.34c-5.7-1.68-3.94-11.1-3.9-15.5q.09-11.78-.57-23.54c-.26-4.86-7.87-4.9-7.6,0,.54,10.12.41,20.14.48,30.25,0,7.83,2.89,15.24,11.53,16.46,3.4.49,8,.8,11.07-1.15,3.73-2.39,3-7.1,3-10.92V525.65c0-4.88-7.6-4.89-7.6,0Z"/><path id="Path_95" data-name="Path 95" class="cls-4" d="M587.67,564.13l.43,30.9c.12,9.33-.38,18.94,1.14,28.18A30.58,30.58,0,0,0,600.68,643c6.23,4.83,13.79,7.49,21.27,9.72a3.86,3.86,0,0,0,4.67-2.65c1-3.58-.77-6.83-3.88-8.68-2.87-1.72-5-2.25-6.17-5.7a30.32,30.32,0,0,1-1.12-8.93q-.18-6.86-.35-13.7-.68-27.1-1.37-54.19c-.12-4.87-7.71-4.89-7.6,0q.68,26.48,1.34,52.94c.19,7.6-.24,15.5,1.09,23a18.38,18.38,0,0,0,3.31,8.07,13.14,13.14,0,0,0,3.1,3c.37.25,4.3,2.2,4.33,2.13l4.67-2.65c-6.48-1.93-13.22-4.12-18.64-8.32-6.07-4.7-8.51-11.57-9.13-19-.7-8.66-.43-17.45-.55-26.13l-.38-27.75c-.07-4.88-7.67-4.9-7.6,0Z"/><path id="Path_96" data-name="Path 96" class="cls-4" d="M595,604.5c2.53.41,5.62.69,7.27,2.94,1.53,2.08,1.8,5.1,2.18,7.6l7.32-2c-1.49-5.9-8.08-7.64-13-9.73-1.9-.81-4-.56-5.2,1.36-.95,1.58-.52,4.4,1.36,5.2,2.1.89,4.24,1.72,6.33,2.68,1.21.55,2.88,1.13,3.23,2.53,1.23,4.85,8,2.69,7.32-2-.59-3.89-1.46-7.77-4-10.86-2.72-3.25-6.69-4.32-10.71-5a3.93,3.93,0,0,0-4.67,2.65c-.52,1.8.63,4.36,2.65,4.68Z"/><path id="Path_97" data-name="Path 97" class="cls-4" d="M501.08,540c1.81,3.67,4.15,7,8.29,8.15s9.1.73,13.21.09c8.72-1.33,16.57-7.28,25.6-6.3,4.85.53,4.82-7.07,0-7.6-7.71-.84-14.56,2.76-21.63,5.1a35.35,35.35,0,0,1-11.23,1.67c-1.53,0-3.46.2-4.83-.68s-2.15-2.85-2.86-4.28C505.48,531.79,498.94,535.64,501.08,540Z"/><path id="Path_98" data-name="Path 98" class="cls-4" d="M546.26,526.26a22.36,22.36,0,0,0-8.71,3.8c-2.77,2-2.2,7.38,1.9,7.07a73.58,73.58,0,0,1,11.5,0c3.39.27,7.34,1.72,10.61.51,4.52-1.67,2.74-8.77-2-7.33-3.51,1.07-7,2-10.63,2.8-4.76,1.07-2.74,8.39,2,7.32,3.59-.8,7.12-1.73,10.62-2.8l-2-7.36c-1.31.49-3-.13-4.38-.31-1.8-.24-3.6-.43-5.42-.55a75.18,75.18,0,0,0-10.29.1l1.9,7.08a17.11,17.11,0,0,1,6.89-3c4.79-1,2.76-8.3-2-7.33Z"/><path id="Path_99" data-name="Path 99" class="cls-4" d="M513.62,548.11c-5,1.8-10.13,3.47-15.09,5.43-4.48,1.77-5.81,6.45-2.38,10.09,6.14,6.51,15.7,10.92,24.27,7a63.88,63.88,0,0,1,6-2.86c2.26-.76,4.55-1.32,6.74-2.26,4.66-2,8.9-5,13.2-7.68,2.49-1.55,5.1-3,7.52-4.65a5.76,5.76,0,0,0,2.77-3.67c.88-4.66-4.43-8-7.88-9.85-4.31-2.31-8.15,4.24-3.83,6.56,1,.54,2.9,2.41,3.85,2.6.52.69.8.38.81-.93.74-1.26.71-1.57-.1-.93-.57,0-1.64,1-2.15,1.33l-9.09,5.62a59.29,59.29,0,0,1-8.46,4.81c-3,1.23-6.24,1.85-9.21,3.29-2.53,1.27-5,3-8,2.71s-5.78-2.23-8.13-4c-.63-.45-1.22-.92-1.8-1.41-1-.85-1-1.59-1.47.2-.57,2.22.7.87,2,.42l2.26-.82,10.2-3.66c4.57-1.63,2.6-9-2-7.32Z"/><path id="Path_100" data-name="Path 100" class="cls-4" d="M538.3,560.71c-.21,6.7-.27,13.72,2.29,20,2.19,5.4,7.87,12.82,14,7.46,3.68-3.24-1.71-8.59-5.37-5.38,1.3-.15,1.44-.58.44-1.26l-.54-.8a17.73,17.73,0,0,1-1.38-2.53,23.61,23.61,0,0,1-1.48-5.6,62.82,62.82,0,0,1-.33-11.95c.16-4.9-7.44-4.89-7.6,0Z"/><path id="Path_101" data-name="Path 101" class="cls-4" d="M553.84,555.36c4.62,1.94,3.58,10.33,3.51,14.23-.1,5.41-.68,11.08-4.57,15.19-3.36,3.55,2,8.93,5.38,5.37,5.92-6.25,6.79-14.56,6.8-22.82,0-7.88-1-15.89-9.1-19.29-1.9-.8-4.16.86-4.67,2.65-.64,2.19.77,3.89,2.65,4.67Z"/><path id="Path_102" data-name="Path 102" class="cls-4" d="M545.7,588.17c.81,7.89-2.27,15.12-5,22.36a93.41,93.41,0,0,0-5.39,21.32c-1.82,14.49-.17,30.64,6,44,3,6.41,11.39,8,17.87,8.23s13.48-3.22,15-10a8.79,8.79,0,0,0-2.05-8.17,6.79,6.79,0,0,0-4.12-1.82c-1.5-.13-3.09.68-4.51.47-3.58-.53-3.29-6.24-3.42-8.86q-.35-6.81-.46-13.62a432.63,432.63,0,0,1,2.82-56.9c.55-4.85-7-4.81-7.6,0A433.39,433.39,0,0,0,552,630.34q-.12,11.16.35,22.3c.26,6.13,0,13.46,5.44,17.56a9.69,9.69,0,0,0,7.65,1.79c1.2-.17,2.08-.9,1.31.64a6.14,6.14,0,0,1-3,3.16c-2.8,1.34-6.21.69-9.1,0a20.67,20.67,0,0,1-4.62-1.26c-1.46-.75-1.86-1.95-2.44-3.44a79.19,79.19,0,0,1-4.66-39.24,96.09,96.09,0,0,1,5.92-21.38c2.71-7.17,5.26-14.52,4.46-22.3-.49-4.81-8.08-4.86-7.59,0Z"/><path id="Path_103" data-name="Path 103" class="cls-4" d="M556.66,658.68a17.06,17.06,0,0,0-13.6,2.31c-4,2.71-.24,9.29,3.83,6.56a9.46,9.46,0,0,1,7.75-1.55C559.39,667.14,561.42,659.82,556.66,658.68Z"/><path id="Path_104" data-name="Path 104" class="cls-4" d="M543.29,633a45.85,45.85,0,0,1,8.36,1.75c4.7,1.39,6.7-5.94,2-7.32a56.46,56.46,0,0,0-10.38-2c-2-.21-3.8,1.9-3.8,3.8a3.88,3.88,0,0,0,3.8,3.8Z"/><path id="Path_105" data-name="Path 105" class="cls-4" d="M551.29,658.38h-4.43a3.8,3.8,0,0,0,0,7.59h4.43a3.8,3.8,0,1,0,0-7.59Z"/><path id="Path_106" data-name="Path 106" class="cls-4" d="M546.92,612.2a93.71,93.71,0,0,0,2.26-29.34c-.4-4.84-8-4.88-7.6,0a86.56,86.56,0,0,1-2,27.32c-1.12,4.76,6.2,6.79,7.33,2Z"/><path id="Path_107" data-name="Path 107" class="cls-4" d="M449.2,577.51c0-1.69-.2-4.15.95-5.56s3.2-1.56,4.75-1.9q6.87-1.62,13.78-3.07c9.7-2,19.46-3.43,29.37-2.4,4.85.5,4.82-7.1,0-7.6-12.21-1.27-24.33,1.08-36.2,3.72-4.79,1.07-10.68,1.56-14.93,4.17-4.43,2.74-5.27,7.82-5.3,12.66s7.6,4.89,7.6,0Z"/><path id="Path_108" data-name="Path 108" class="cls-4" d="M496.48,563.77c-3.63,8.18-12.92,9.62-21,10.05-9.6.5-19.23.53-28.83.3-4.89-.12-4.89,7.47,0,7.59,11.09.28,22.45.56,33.5-.63,9.12-1,18.83-4.43,22.84-13.45,2-4.43-4.58-8.3-6.56-3.83Z"/><path id="Path_109" data-name="Path 109" class="cls-4" d="M504.44,574.81c5.56,5.22,5.7,13.37,5.47,20.49-.12,4.67-.32,9.38-.82,14-.38,3.54-1.35,8.62-5.56,9.33a31.41,31.41,0,0,1-6.43-.09c-2-.07-3.48.64-3.32-1.32.35-4.16,1.61-8.29,2.1-12.47a92.33,92.33,0,0,0-1.21-28.15c-.93-4.79-8.23-2.76-7.33,2a84.45,84.45,0,0,1,1.48,19c-.2,5.8-1.37,11.27-2.33,17-.7,4.21-.08,8.91,4.33,10.72,2.65,1.08,5.9.79,8.7.89s5.38.2,7.92-.83c10.67-4.33,9.72-19.49,10-28.88s-.25-20.14-7.66-27.1c-3.56-3.35-8.94,2-5.37,5.37Z"/><path id="Path_110" data-name="Path 110" class="cls-4" d="M487.89,620.94q-9,9-17.51,18.47c-4.56,5.14-9.37,10.67-10.89,17.57a37,37,0,0,0-.33,11.12c.36,4.21.57,8.4.76,12.61.32,7.14,1,14.38,4.09,20.89,2.65,5.56,7.14,10.41,12.95,12.66s13.51,1.13,13.78-6.44c.11-3.24-1.51-5.89-2.94-8.66a30.37,30.37,0,0,1-3-10c-.93-7.3-.1-15.12,1.12-22.34.35-2.06.75-3.56,2.4-4.92,1.4-1.15,2.91-2.16,4.26-3.37a38.9,38.9,0,0,0,7.4-9,40.3,40.3,0,0,0,5.7-21.43c-.09-4.88-7.69-4.91-7.6,0a32.7,32.7,0,0,1-4.17,16.77,31.42,31.42,0,0,1-4.6,6.27c-2.07,2.18-4.59,3.71-6.76,5.73-4.62,4.28-4.56,11.56-5.15,17.4a65.3,65.3,0,0,0,.24,18,36.56,36.56,0,0,0,2.53,8.43c.35.8,3.89,6.4,3.17,7.18-1,1.06-5.21-1.32-6.1-1.9a17.94,17.94,0,0,1-5.33-5.74c-3.34-5.51-4-12-4.29-18.36s-1.22-13-1.1-19.41c.16-7.6,5.28-13.2,10.09-18.58q8.07-9,16.7-17.56c3.48-3.45-1.9-8.82-5.36-5.37Z"/><path id="Path_111" data-name="Path 111" class="cls-4" d="M479.93,665.57c-3.22-.2-6.51-.64-9.73-.64-2.7,0-5.4,1.38-5.65,4.36-.59,7.14,9.81,5.59,14.07,5.39,4.86-.22,4.9-7.82,0-7.6-1.63.08-3.26.13-4.89.16-.73,0-1.51,0-2.22,0-.94.1-1-.37-.41.21l1,1.67-.14-.36v2l.08-.42-1,1.68c-1,.36-1.15.53-.41.5l1.33.08,2.65.16,5.31.34c4.88.3,4.86-7.29,0-7.6Z"/><path id="Path_112" data-name="Path 112" class="cls-4" d="M485.77,554.82c-2.83-9.49-13.24-12.28-21.85-14.12-5.7-1.22-11.89-2-17.55-.07-5.36,1.84-9.95,5.4-15.26,7.42a60.86,60.86,0,0,1-32.5,3.11c-5-.92-10.51-1.76-13.29-6.33a19,19,0,0,0-3.57-4.75,8.45,8.45,0,0,0-2.6-1.57c-.9-.35-3.09-.21-3.69-.77s-.37-3.28-.48-4.52a9.52,9.52,0,0,0-2.31-6c-1.84-1.9-5.06-1.64-6.63-3.6-2.07-2.59-.93-6.74-.31-9.6,1-4.77-6.3-6.8-7.33-2-1.17,5.45-2,11.39,1.59,16.14a11.42,11.42,0,0,0,5.89,4c.83.28,1.15.22,1.43.73.4.72.16,2.06.2,2.85.18,4.43,1.58,8.34,6.36,9.41,2.32.53,3,.39,4.29,2.49s2.41,4.14,4.29,5.7c4.14,3.45,10.53,4.61,15.71,5.43a68.52,68.52,0,0,0,33.43-2.84c5.54-2,10.29-5.07,15.57-7.49,6.06-2.78,13.13-.92,19.26.63,4.43,1.14,10.51,2.79,12,7.75,1.38,4.67,8.72,2.68,7.32-2Z"/><path id="Path_113" data-name="Path 113" class="cls-4" d="M446.93,563.74c-7.1-3.74-19.08-4.53-20,6-.34,3.72.2,8.28,3.74,10.29,3.8,2.17,8.53,2.3,12.74,1.61,4.81-.78,2.77-8.1-2-7.32a12.36,12.36,0,0,1-5.41-.33c-1.86-.54-1.68-1.18-1.52-3.37.3-4,6.62-1.45,8.68-.36,4.32,2.27,8.17-4.28,3.8-6.56Z"/><path id="Path_114" data-name="Path 114" class="cls-4" d="M434.89,564.69c-.09-7.29-7-9.78-13.14-10.13-6-.33-14.25-1.22-15.2,6.8-.7,6,4.7,11.06,9.69,13.38,1.35.63,2.79,1,4.12,1.69,1.66.8,2.27,1.85,3.21,3.38,2.06,3.32,4.29,6.52,6.66,9.63,2.93,3.8,9.5,0,6.56-3.84s-5.34-8-8.12-11.93c-2.42-3.41-5.94-4.1-9.44-5.91a12.41,12.41,0,0,1-4.33-3.45c-.26-.35-1.08-1.55-.85-2.07s1.22-.36,1.9-.34c2.35,0,11.34-.69,11.39,2.78.05,4.89,7.65,4.9,7.6,0Z"/><path id="Path_115" data-name="Path 115" class="cls-4" d="M429,591.09c1.37,2.65,1.11,6,1.57,8.86a12.19,12.19,0,0,0,4.18,7.88c2.46,2,5.87,2.68,8.23,5.06a18.73,18.73,0,0,1,4.26,7.68c2.07,6.61,2.3,13.79,2.45,20.67.14,6.27.47,13.84-4.82,18.22-3.8,3.12,1.63,8.46,5.37,5.37,5.7-4.7,7-12.33,7.08-19.32.13-8-.19-16.5-2-24.35-1.55-6.53-4.77-13-10.69-16.6-1.6-1-3.84-1.42-5.21-2.72-1.12-1.06-1.3-2.73-1.49-4.18-.47-3.65-.58-7-2.31-10.38-2.25-4.34-8.8-.5-6.56,3.84Z"/><path id="Path_116" data-name="Path 116" class="cls-4" d="M450,660.39c-5.78-8.86-13.85-15-23.58-19-2.62-1.08-5.3-2-8-2.86-1.08-.33-2.17-.63-3.26-1a16.37,16.37,0,0,1-1.68-.53c.34,2.05.79,2.36,1.35.89,1.4-1.31,2.26-4.76,2.77-6.6a29.65,29.65,0,0,0,1-8.17c0-4.88-7.64-4.9-7.6,0a21.64,21.64,0,0,1-1.36,8.12c-.83,2.14-2.61,4-3,6.32-1,6,6.13,7.13,10.3,8.45,10.7,3.39,20.25,8.59,26.5,18.18,2.66,4.07,9.24.27,6.55-3.84Z"/><path id="Path_117" data-name="Path 117" class="cls-4" d="M417,627.33c5.59-.71,11.9-1.16,16.54-4.71s5.35-9.06,5.39-14.49c.06-4.9-7.54-4.9-7.6,0,0,3.3.05,7.06-3.11,9s-7.64,2.19-11.24,2.65c-4.79.64-4.85,8.23,0,7.6Z"/><path id="Path_118" data-name="Path 118" class="cls-4" d="M435.18,611.93c4.88,0,4.89-7.6,0-7.6S430.28,611.93,435.18,611.93Z"/><path id="Path_119" data-name="Path 119" class="cls-4" d="M412.3,624.49c-9.86-6.15-20.54-13-24-24.78-1.77-6.12-1.77-12.56-1.54-18.88.12-3.21.26-6.44.52-9.65a42.89,42.89,0,0,1,.74-5.41c.16-.75.54-1.58.63-2.32s.81-.75,0-.63c4.8-.56,4.86-8.17,0-7.6-8.52,1-8.68,11.66-9.1,18.35-.5,8.17-.93,16.46.59,24.56,3,15.82,15.5,25,28.32,33,4.16,2.6,8-4,3.84-6.55Z"/><path id="Path_120" data-name="Path 120" class="cls-4" d="M405.18,558.28a69,69,0,0,0-13-2.21c-4.87-.37-4.85,7.23,0,7.6a57.55,57.55,0,0,1,11,1.94C407.88,566.87,409.9,559.57,405.18,558.28Z"/><path id="Path_121" data-name="Path 121" class="cls-4" d="M402.85,565.49h.58c.44,0,.39,0-.14-.06.11,0,1.52.37.48.06a3.58,3.58,0,0,1,1,.58c-.77-.55.14.23.28.4a3.8,3.8,0,0,0,5.37,0,3.88,3.88,0,0,0,0-5.36,9.39,9.39,0,0,0-7.6-3.17,3.86,3.86,0,0,0-3.8,3.8c.09,2,1.68,3.94,3.8,3.8Z"/><path id="Path_122" data-name="Path 122" class="cls-4" d="M330.51,403.51c-8.23,1.53-22,5.95-27.63-2.93-1.89-3-7.29-2-7.07,1.9.25,4.52.63,9.07,2.71,13.17s5.83,6.82,9.74,8.86,8.17,4.18,12.66,4.29,8.86-1.78,12.66-4.11,6.75-5.06,7.15-9.82c.29-3.55-.17-8.65-4.64-9s-7.34,4-11.46,4.79c-2.53.46-5.42.16-8,.18l-8.14.07c-3.49,0-5.54,5.49-1.9,7.08,4.38,1.9,9.18,4.15,14,4.69a12.84,12.84,0,0,0,6.4-1.19,17,17,0,0,1,7.2-1.16c4.88.25,4.87-7.34,0-7.6a24,24,0,0,0-6.16.47c-1.9.41-3.61,1.54-5.48,1.9s-3.8-.55-5.49-1.12q-3.36-1.11-6.6-2.53l-1.9,7.08c5.14-.05,10.4.22,15.53-.2a16.61,16.61,0,0,0,6.51-1.72c1.58-.84,3.72-3.17,5.57-3.12l-2.69-1.12c-.33-1-.44-1.11-.31-.31l.06,1a6.59,6.59,0,0,1-.22,2.65c-.76,1.58-3.56,2.8-5,3.58-3.91,2.1-7.47,2.53-11.6.77-3.41-1.44-7.41-3.17-9.85-6.07-2.66-3.13-2.82-7.53-3-11.43l-7.08,1.9c8,12.66,24,8.7,36.2,6.42,4.8-.9,2.77-8.23-2-7.33Z"/><path id="Path_123" data-name="Path 123" class="cls-4" d="M330.43,410.19a16.47,16.47,0,0,0,10.76,2.7,3.89,3.89,0,0,0,3.8-3.8c0-1.9-1.75-4-3.8-3.8a9.78,9.78,0,0,1-7-1.67,3.8,3.8,0,1,0-4,6.45l.19.11Z"/><path id="Path_124" data-name="Path 124" class="cls-4" d="M338.24,423a12.41,12.41,0,0,0,6.74-5.7,3.8,3.8,0,1,0-6.44-4l-.11.19a3.76,3.76,0,0,1-.7,1.13c.31-.21.36-.45,0-.05-.16.16-.31.32-.48.47s-.35.23-.4.34c.38-.29.46-.35.23-.2l-.22.15-.58.34c-.21.11-1,.4-.06.05-1.85.71-3.33,2.58-2.65,4.67.58,1.8,2.68,3.41,4.67,2.65Z"/><path id="Path_125" data-name="Path 125" class="cls-4" d="M305,425.07a7.27,7.27,0,0,1-2.34,3c-2.33,1.65-2.65,6.39.91,7,5.81.9,18.88,2.42,17.93-7.23l-3.8,3.8c-2.84-.33-.75-.79-1,.12l1.74-2.27q1.42-.17,0-.21a6.94,6.94,0,0,0-1.87.13,9,9,0,0,0-3.3,1.27,8.86,8.86,0,0,0-3.91,5.84l6.33-1.68c-2.64-2.32.29-4.7-.47-7.6a4.79,4.79,0,0,0-5.81-3.5,5,5,0,0,0-1.31.54c-6.19,3.55-3.8,12.73,2.62,14.18,4.75,1.08,6.78-6.11,2-7.32-1.57-.4-1.31-1.38-.2-2.27,3.8-3.07-1.6-8.42-5.37-5.38-5.63,4.54-3.2,13.25,3.55,15l2-7.32c-1.43-.32-4.31-3.43-5.16-2.34s-.79,3.09-.74,4.23a10.21,10.21,0,0,0,3.48,7.2c2,1.73,5.78,1.32,6.33-1.68.46-2.44,2.34-1.26,4.13-1.8a4.92,4.92,0,0,0,3.53-4.63,7.61,7.61,0,0,0-6.57-8.13,3.79,3.79,0,0,0-3.8,3.78v0c.07.79-7.47,0-8.32-.09l.9,7a15.1,15.1,0,0,0,5.06-5.7c2.16-4.37-4.38-8.23-6.56-3.84Z"/><path id="Path_126" data-name="Path 126" class="cls-4" d="M302.9,430.07c-4.82-1.76-9.93-1.77-15-1.78-4.91,0-10-.43-14.9.3a16.49,16.49,0,0,0-13.86,17.72c.49,4.82,8.09,4.87,7.6,0a9.28,9.28,0,0,1,2.56-7.81c2.54-2.53,5.84-2.62,9.22-2.64,7.26,0,15.46-1,22.39,1.52,4.6,1.67,6.59-5.66,2-7.33Z"/><path id="Path_127" data-name="Path 127" class="cls-4" d="M302.48,437.61a24.11,24.11,0,0,1,4.69,12.74c.2,2,.83,5.48,0,7.36-.64,1.48-2.3,2.26-3.69,2.9-4.25,2-8.92,2.93-13.13,5a12.8,12.8,0,0,0-5.1,4.24c-.92,1.34-1.33,3.8-2.74,4.6-4.21,2.46-.39,9,3.84,6.56,2.24-1.31,3.33-3.22,4.43-5.49,1.23-2.54,3.2-3.32,5.75-4.25,5-1.81,11-3.17,15-6.88,4.15-3.88,3.69-9.83,3.1-15-.63-5.59-2.14-11.07-5.62-15.58-1.26-1.64-3.24-2.47-5.19-1.36-1.61.91-2.61,3.57-1.36,5.2Z"/><path id="Path_128" data-name="Path 128" class="cls-4" d="M258.36,446.57c-2.53,7.81.33,14.55,5.4,20.5s10.23,11.6,17.13,15.19c4.32,2.26,8.17-4.29,3.82-6.56-5.38-2.82-9.55-7.09-13.51-11.62s-7.6-9-5.51-15.51c1.5-4.66-5.83-6.66-7.32-2Z"/><path id="Path_129" data-name="Path 129" class="cls-4" d="M315.55,464c1.76-.23,4.22-.78,5.89.08s2.9,3.25,4,4.84c2.69,3.88,5.47,7.7,8,11.68,4.91,7.78,6.65,16.33,8.14,25.32.8,4.81,8.12,2.76,7.32-2-1.8-10.91-4.47-20.62-10.72-29.86-3-4.44-5.92-9.17-9.33-13.3s-8-5-13.3-4.28c-2.05.27-3.8,1.56-3.8,3.8,0,1.85,1.77,4.07,3.8,3.8Z"/><path id="Path_130" data-name="Path 130" class="cls-4" d="M358.51,503.06l-21.58.41c-7,.13-14,.39-20.51-2.44-11.58-5-20.64-15.67-29.65-24.17-3.56-3.35-8.94,2-5.37,5.37,9.78,9.22,19.5,20.36,32.09,25.75,6.73,2.88,13.76,3.25,21,3.12q12-.21,24-.45c4.88-.09,4.9-7.69,0-7.6Z"/><path id="Path_131" data-name="Path 131" class="cls-4" d="M357.61,523.08c-6.71.23-10.44,5.79-13.33,11.18-3.34,6.24-6,13-10.58,18.46-3.11,3.73,2.24,9.13,5.37,5.37,3.88-4.65,6.65-9.87,9.34-15.25,1.7-3.39,4.6-12,9.2-12.17,4.87-.16,4.9-7.76,0-7.6Z"/><path id="Path_132" data-name="Path 132" class="cls-4" d="M368.92,541.92c-1.56,2.11-5.2,1.86-7.49,1.9-3.42,0-6.73.14-9.88,1.6-1.44.63-2.76,1.65-4.23,2.24s-2.8.63-4.16,1.05a9.86,9.86,0,0,0-6.33,4.76c-2.24,4.34,4.31,8.19,6.56,3.84,1-2,5-1.9,6.91-2.74,3.37-1.41,5.7-3.08,9.49-3.16,6.09-.09,11.79-.33,15.7-5.63,2.9-3.95-3.69-7.74-6.56-3.84Z"/><path id="Path_133" data-name="Path 133" class="cls-4" d="M360.6,549.49a65.23,65.23,0,0,1-16.45,21.17c-2,1.74-1.09,5.93,1.67,6.33,11.19,1.7,27.81,3.94,36.35-5.52,3.28-3.62-2.08-9-5.36-5.38-3,3.36-7.4,4.21-11.74,4.43a83.49,83.49,0,0,1-17.23-.88l1.67,6.33a70.73,70.73,0,0,0,17.63-22.7c2.14-4.38-4.43-8.23-6.56-3.84Z"/><path id="Path_134" data-name="Path 134" class="cls-4" d="M338.12,559.28a61.62,61.62,0,0,0,23.2-5c1.9-.81,2.28-3.58,1.36-5.2-1.12-2-3.32-2.16-5.2-1.37a51.59,51.59,0,0,1-19.37,4C333.24,551.76,333.22,559.36,338.12,559.28Z"/><path id="Path_135" data-name="Path 135" class="cls-4" d="M351.41,554.73c4.89,0,4.89-7.6,0-7.6S346.52,554.73,351.41,554.73Z"/><path id="Path_136" data-name="Path 136" class="cls-4" d="M316.73,507C315.47,522,333.08,532.36,345,536.69c4.6,1.69,6.58-5.66,2-7.32a49.49,49.49,0,0,1-15.19-8.76c-4.09-3.49-8-7.85-7.51-13.57C324.73,502.18,317.14,502.2,316.73,507Z"/><path id="Path_137" data-name="Path 137" class="cls-4" d="M263.78,434.74c-8.33-9.34-21.11-11.15-33-11.21-6.52,0-13.24-.17-19.62,1.26-6.14,1.37-11.52,4.66-16.55,8.33-10.23,7.47-19.62,16.32-28.54,25.31s-15.69,19-19.47,31c-4.14,13.16-4.91,27.15-5.61,40.82-.18,3.62,5.51,5.37,7.08,1.9l7.14-15.65c2-4.43,3.75-9.11,6.33-13.21s6.66-4.9,11.39-4.92a111,111,0,0,1,16.88,1.26l-2.28-5.58c-3.2,5.49-8.08,9.72-11.33,15.19a46.29,46.29,0,0,0-5.93,16.82A47.79,47.79,0,0,0,177.69,560c1.23,1.8,4.34,2.82,6,.77a32.3,32.3,0,0,0,5.48-11.59c1.05-3.63,1.86-7.92,4.63-10.69,3.4-3.39,8.8-3.16,13.24-2.94,5.58.25,11.15.67,16.74.54,20.55-.47,39.95-10,50.14-28.43a55.65,55.65,0,0,0,6.48-33.86c-.63-4.78-8.23-4.85-7.6,0,2.53,19.74-6.8,39.15-24.4,48.73-9.07,5-19.14,6.15-29.34,6-9.11-.16-20.58-2.85-28.58,2.92-3.8,2.75-5.88,6.85-7.31,11.23s-2,9.18-4.85,12.76l6,.77a40.42,40.42,0,0,1-6.33-29.94,39.82,39.82,0,0,1,5.6-14.32c3.17-4.93,7.6-8.86,10.6-14,1.12-1.9.22-5.21-2.26-5.58a124.57,124.57,0,0,0-18.9-1.51c-5.54,0-11.09.89-15.12,5.07-3.8,3.86-5.7,9.24-7.89,14.06l-8.41,18.4,7.07,1.9c1.12-22,3-44.43,18.3-61.69A236.77,236.77,0,0,1,192,444.67a84.64,84.64,0,0,1,13.75-9.81c5.24-2.85,10.91-3.54,16.78-3.68,12.22-.3,27-1,35.84,8.92,3.26,3.66,8.62-1.73,5.37-5.37Z"/><path id="Path_138" data-name="Path 138" class="cls-4" d="M191.61,495.73c4-3.8,6.33-8.7,8.47-13.74,2.4-5.6,5.57-10.2,8.86-15.27,6.68-10.29,6.33-22.79,5.48-34.52-.33-4.85-7.93-4.89-7.6,0,.77,11,1.37,22.15-5.06,31.65a80.21,80.21,0,0,0-7.84,13.44c-2,4.69-3.89,9.49-7.67,13.1-3.57,3.37,1.81,8.73,5.36,5.37Z"/><path id="Path_139" data-name="Path 139" class="cls-4" d="M254.17,672.05c6.18,8.86,18.45,9.05,28.18,7.83,11.39-1.43,21.58-6.1,30.93-12.6,8.87-6.15,17-13.4,26.35-18.78a77.14,77.14,0,0,1,31.52-9.62,105.78,105.78,0,0,1,37.34,3.68c4.72,1.3,6.73-6,2-7.32-20.4-5.61-42.86-6.33-62.89,1.18-9.92,3.73-18.49,9.5-26.87,15.89s-16.93,13.33-27,17.05a54.19,54.19,0,0,1-18.12,3.41c-4.9.07-11.8-.06-14.94-4.54-2.77-4-9.36-.19-6.55,3.8Z"/><path id="Path_140" data-name="Path 140" class="cls-4" d="M439.1,662.29c3.79,25.31-12.58,48.1-33,61.13-11.14,7.1-23.25,13.29-35.1,19.11-12.53,6.14-26.93,4-40.4,3.44-11.55-.46-26.94.88-35.45-8.6l-2.69,6.48c12.2-.09,24.79-1.08,36.67-4,9.88-2.42,19.28-8.62,20.06-19.62.15-2.09-1.87-3.74-3.8-3.8l-30.77-.87c-9-.25-19.5.53-27.43-4.6-6.83-4.43-10.24-12.61-12.92-19.93-3-8.33-5.87-16.6-11.47-23.62-3-3.8-8.39,1.58-5.37,5.37,11.09,13.92,10,35.44,26.79,45.27,8.39,4.91,18.53,4.77,27.94,5.07l33.23.93-3.8-3.8c-.63,9.06-11.48,11.83-18.72,13.19a173.34,173.34,0,0,1-30.41,2.82c-3.42,0-4.85,4.08-2.69,6.49,8.23,9.21,21.28,10,32.83,10.51,7.73.31,15.45.63,23.17.91,7.22.25,14.64.23,21.6-2s13.55-6.29,20.06-9.74,13.17-6.83,19.52-10.65c11.5-6.9,21.78-15.82,29.22-27a63.52,63.52,0,0,0,10.22-44.5c-.72-4.81-8-2.77-7.32,2Z"/><path id="Path_141" data-name="Path 141" class="cls-4" d="M279.18,701.48c10.68-.82,21.34.32,32,.19,10.5-.13,20.21-2.37,30.14-5.64a146.81,146.81,0,0,1,30.6-7.08c9.34-1,18.56-1.4,26.4,4.54,7.41,5.61,12.26,14.1,16.77,22,2.41,4.25,9,.43,6.56-3.83-4.26-7.56-8.9-15.26-15.27-21.29a34.42,34.42,0,0,0-24.37-9.7,122.69,122.69,0,0,0-32.53,4.82c-10.76,3-21,7.48-32.28,8.29-12.66.91-25.35-.93-38,0-4.84.37-4.88,8,0,7.6Z"/><path id="Path_142" data-name="Path 142" class="cls-4" d="M348.19,722.75c6.7-5.7,15-9.21,21.95-14.56s12.62-11.83,17.9-18.74c3-3.88-3.63-7.67-6.56-3.83-5.11,6.69-10.86,13.13-17.82,18s-14.44,8.35-20.85,13.81C339.09,720.55,344.48,725.91,348.19,722.75Z"/><path id="Path_143" data-name="Path 143" class="cls-4" d="M370.08,687.88c-3.55,5.43-6.7,12.26-12,16.15-5.12,3.76-9.83,8.06-14.64,12.2-3.71,3.16,1.69,8.54,5.37,5.37,5.06-4.36,10.13-8.59,15.39-12.73,2.61-2,4.34-4.74,6.14-7.5l6.32-9.67c2.69-4.1-3.89-7.91-6.55-3.8Z"/><path id="Path_144" data-name="Path 144" class="cls-4" d="M510.07,547.64c4.89,0,4.9-7.6,0-7.6S505.18,547.64,510.07,547.64Z"/><path id="Path_145" data-name="Path 145" class="cls-4" d="M601,473.61l.27,4.73a1,1,0,0,0,1.91,0,8.58,8.58,0,0,1,.7-2.53l-1.74-.73-.8,2.13h1.83a7.32,7.32,0,0,1-.09-2.72,1,1,0,1,0-1.84-.5h0l-2.42,6,1.9.25a81.07,81.07,0,0,0,.35-9.73,1,1,0,1,0-1.9,0,81.07,81.07,0,0,1-.35,9.73c-.11,1.16,1.5,1.16,1.87.25l2.42-6-1.83-.5a10,10,0,0,0,.1,3.73c.2,1,1.53.8,1.82,0l.8-2.14c.38-1-1.3-1.71-1.73-.73a12.19,12.19,0,0,0-1,3.46h1.9l-.27-4.73c-.07-1.21-2-1.22-1.9,0Z"/><path id="Path_146" data-name="Path 146" class="cls-4" d="M597.94,505.34l.07,2.46a1,1,0,0,0,1,.94,1,1,0,0,0,.45-.12,5,5,0,0,0,2.53-2.89,1,1,0,0,0-.69-1.17.85.85,0,0,0-.23,0,3.11,3.11,0,0,0-2.34,1.31,1,1,0,0,0,.34,1.3h0a1.17,1.17,0,0,1-.22-.51l.24-.4-.06.08a1,1,0,0,0,0,1.34,1,1,0,0,0,1.34,0,1.36,1.36,0,0,0,0-1.92,1.44,1.44,0,0,0-.31-.22l.35,1.3a1,1,0,0,1,.7-.37l-.92-1.2a3.09,3.09,0,0,1-1.67,1.75l1.43.83-.06-2.46a.95.95,0,0,0-1.9,0Z"/><path id="Path_147" data-name="Path 147" class="cls-4" d="M644.85,554.53c-.15,1.37-.25,2.72-.31,4.09h1.9a26.6,26.6,0,0,1-.14-4.55c.05-.9-1.38-1.35-1.76-.48a14.91,14.91,0,0,0-1.14,5.7h1.9l.12-6.88a1,1,0,0,0-1.9-.25h0a26.8,26.8,0,0,0-.73,6.91l1.9-.25c-.31-1,.22-2.58.35-3.61.16-1.21.27-2.42.35-3.63s-1.81-1.22-1.9,0c-.1,1.5-.25,3-.47,4.49a7.29,7.29,0,0,0-.17,3.25,1,1,0,1,0,1.9-.25h0a24.59,24.59,0,0,1,.64-6.4l-1.87-.26-.11,6.88a.95.95,0,1,0,1.9,0,12.56,12.56,0,0,1,.87-4.77l-1.77-.47a26.51,26.51,0,0,0,.14,4.54.95.95,0,0,0,1.9,0c.06-1.37.16-2.72.31-4.08s-1.76-1.2-1.9,0Z"/><path id="Path_148" data-name="Path 148" class="cls-5" d="M550.36,606.66a7,7,0,0,0,1.5-4.43,47.37,47.37,0,0,1,1.47-8.86l-1.9-.26c0,6.73-2.5,12.82-2.7,19.55,0,1.23,1.86,1.22,1.9,0,.21-6.74,2.73-12.78,2.7-19.55a1,1,0,0,0-1.87-.24,53.37,53.37,0,0,0-1.17,5.48c-.3,2,0,5.34-1.31,7-.77.93.56,2.28,1.35,1.34Z"/><path id="Path_149" data-name="Path 149" class="cls-5" d="M552.07,591.45c.11,1-.46,1.93-.45,2.93a1,1,0,1,0,1.9,0c0-1,.56-1.9.45-2.93a1,1,0,0,0-1-1A1,1,0,0,0,552.07,591.45Z"/><path id="Path_150" data-name="Path 150" class="cls-5" d="M551.78,591.12a7.07,7.07,0,0,0-.63,2.82c-.08,1.13-.45,2.21-.51,3.35s1.85,1.22,1.91,0c0-.89.38-1.75.45-2.65a7.07,7.07,0,0,1,.42-2.57c.54-1.09-1.1-2.05-1.64-1Z"/><path id="Path_151" data-name="Path 151" class="cls-5" d="M548.74,606.39a75.89,75.89,0,0,1-1.35,9.73c-.24,1.19,1.59,1.7,1.84.5a83.87,83.87,0,0,0,1.41-10.23C550.74,605.17,548.84,605.18,548.74,606.39Z"/><path id="Path_152" data-name="Path 152" class="cls-5" d="M564,663.82a58,58,0,0,1,8.55,6.57,29.85,29.85,0,0,0,6.57,5.1c1.09.54,2-1.1,1-1.64-3-1.51-5.2-4-7.71-6.18a58.25,58.25,0,0,0-7.4-5.48c-1-.63-2,1-1,1.64Z"/><path id="Path_153" data-name="Path 153" class="cls-5" d="M568.3,665.09c1.27.53,2.27,2.2,3.12,3.21l3,3.56c.79.93,2.13-.42,1.34-1.34l-3.72-4.39a8.89,8.89,0,0,0-3.25-2.87C567.68,662.8,567.19,664.63,568.3,665.09Z"/><path id="Path_154" data-name="Path 154" class="cls-5" d="M575.75,669.22a13.17,13.17,0,0,0-4.27-5,1,1,0,0,0-1.15,1.49,38.7,38.7,0,0,0,4.53,4.15l1.15-1.5c-3.94-2.25-7.93-4.34-12.47-5l.7.92c0-.71-.2-1.39-.82-.88,1-.77-.4-2.1-1.34-1.35-1.27,1,.24,1.69.26,2.23a1,1,0,0,0,.7.91c4.38.64,8.23,2.66,12,4.83.9.52,2-.8,1.15-1.48a38.7,38.7,0,0,1-4.53-4.15l-1.15,1.49a11.43,11.43,0,0,1,3.59,4.3,1,1,0,0,0,1.3.31,1,1,0,0,0,.34-1.27Z"/><path id="Path_155" data-name="Path 155" class="cls-5" d="M561.09,663A3.18,3.18,0,0,0,562.3,665a3.22,3.22,0,0,0,2,.3,1,1,0,0,0,1-1,1,1,0,0,0-1-.95,1.81,1.81,0,0,1-1,0c-.24-.13-.33-.59-.4-.83a.95.95,0,0,0-1.83.5Z"/><path id="Path_156" data-name="Path 156" class="cls-5" d="M561.78,663.3a1,1,0,1,0-.95-.95h0A.94.94,0,0,0,561.78,663.3Z"/><path id="Path_157" data-name="Path 157" class="cls-5" d="M573.48,672.09c.67.71.37,2.27.29,3.13a13.14,13.14,0,0,0-.24,2.8c.14,1.2,2.05,1.21,1.9,0-.28-2.36,1.3-5.26-.63-7.27-.84-.88-2.19.46-1.34,1.34Z"/><path id="Path_158" data-name="Path 158" class="cls-5" d="M571.85,669.67c.45,1.42,1.14,2.53,1.21,4.07a19.92,19.92,0,0,1-.33,5.17c-.26,1.19,1.57,1.7,1.83.51a22.26,22.26,0,0,0,.4-5.7c-.06-1.78-.76-2.93-1.26-4.58-.37-1.16-2.2-.64-1.83.5Z"/><path id="Path_159" data-name="Path 159" class="cls-5" d="M554.23,668.36c1.9,1,3.2,2.89,5.14,3.89a7.74,7.74,0,0,0,5.48.72c1.18-.28.68-2.11-.51-1.83-4.21,1-6-2.78-9.15-4.44-1.08-.55-2,1.09-1,1.64Z"/><path id="Path_160" data-name="Path 160" class="cls-5" d="M566.08,670.88c-1,.11-1.84.56-2.78.7a15.27,15.27,0,0,0-3,.34c-1.15.39-.63,2.23.51,1.84a17.54,17.54,0,0,1,2.89-.34c.82-.13,1.56-.54,2.4-.63,1.2-.14,1.22-2,0-1.9Z"/><path id="Path_161" data-name="Path 161" class="cls-5" d="M553.78,667.69c.84.14,1.27,1.43,1.76,2.07a27.77,27.77,0,0,0,2,2.22c.85.88,2.19-.46,1.35-1.34a17.4,17.4,0,0,1-2.39-2.83c-.57-.92-1-1.75-2.2-1.95S552.57,667.49,553.78,667.69Z"/><path id="Path_162" data-name="Path 162" class="cls-5" d="M607.52,618c.07-3.29-3.42-4.11-6-4.21-1.22-.05-1.22,1.85,0,1.9,1.5.06,4.18.23,4.13,2.31a1,1,0,0,0,1.9,0Z"/><path id="Path_163" data-name="Path 163" class="cls-5" d="M602.69,615.44a17.6,17.6,0,0,0,2.18,1.07,1,1,0,0,0,1.17-.64,1,1,0,0,0-.63-1.16,15.54,15.54,0,0,1-1.73-.87.95.95,0,1,0-1,1.63h0Z"/><path id="Path_164" data-name="Path 164" class="cls-5" d="M652.47,603.78a26.82,26.82,0,0,1,.78,9.81l1.62-.67c-1-1.17-.68-3.29-.76-4.71l-.26-4.92c-.06-1.22-2-1.22-1.9,0,.13,2.46.22,4.92.39,7.38a5.92,5.92,0,0,0,1.19,3.6c.58.7,1.55.05,1.62-.68a28.08,28.08,0,0,0-.86-10.32,1,1,0,0,0-1.18-.64,1,1,0,0,0-.65,1.15Z"/><path id="Path_165" data-name="Path 165" class="cls-5" d="M651.19,605.64c-.07,2.69-.4,7.23,2.23,8.86,1,.63,2-1,1-1.64s-1.08-2.49-1.19-3.64a29,29,0,0,1-.1-3.61.95.95,0,1,0-1.9,0h0Z"/><path id="Path_166" data-name="Path 166" class="cls-5" d="M652,608.19a.95.95,0,1,0,0-1.9,1,1,0,0,0-1,1h0A1,1,0,0,0,652,608.19Z"/><path id="Path_167" data-name="Path 167" class="cls-5" d="M653.55,602.5l.06,11.13a1,1,0,1,0,1.9,0l-.06-11.13a1,1,0,0,0-1.9,0Z"/><path id="Path_168" data-name="Path 168" class="cls-5" d="M654.27,614.87a1,1,0,0,0,0-1.9.94.94,0,0,0-.95.95h0A1,1,0,0,0,654.27,614.87Z"/><path id="Path_169" data-name="Path 169" class="cls-5" d="M658.5,632.91c-4.64-2.35-10.76-5.74-12.32-11.09a1,1,0,0,0-1.83.51c1.74,5.93,8,9.6,13.2,12.21,1.08.56,2.05-1.09,1-1.63Z"/><path id="Path_170" data-name="Path 170" class="cls-5" d="M549.7,581.93a5.25,5.25,0,0,0,3.09,1.26c1.19.09,2.22-.68,2-1.94s-2.08-.69-1.84.5c.28-.33.3-.47.07-.45h-.3a3,3,0,0,1-.59-.14,3.1,3.1,0,0,1-1.06-.6c-.93-.78-2.28.56-1.34,1.35Z"/><path id="Path_171" data-name="Path 171" class="cls-5" d="M631.19,438.74a19.64,19.64,0,0,1-1.22,3.88l.57-.44a6.17,6.17,0,0,0-1.44.63h1l-.13-.09.43.57c-.16-.57.64-2.24,1-2.72a7.87,7.87,0,0,1,2.67-1.78,1,1,0,0,0-1-1.64c-1.59.89-3,1.58-3.73,3.33-.47,1.15-1.54,3-.21,4a.92.92,0,0,0,1,0c.64-.34,1.41-.51,1.74-1.26a32.78,32.78,0,0,0,1.22-4,1,1,0,0,0-1.83-.51Z"/><path id="Path_172" data-name="Path 172" class="cls-5" d="M630.08,443a14.91,14.91,0,0,1,.88-3.22,3.49,3.49,0,0,1,.67-1.43c.51-.48,1-.34,1.72-.25.93.12,1.27-1.38.48-1.77-1.2-.58-2.82-1.38-3.8,0a4.15,4.15,0,0,0-.54,2.07c-.11,1.05-.21,2.1-.31,3.16-.13,1.22,1.77,1.21,1.9,0l.27-2.7c0-.39,0-1.2.42-1.38.2-.08,1,.41,1.13.5l.48-1.77c-1.47-.19-2.93,0-3.62,1.47a17.38,17.38,0,0,0-1.55,5.33c-.15,1.21,1.75,1.2,1.9,0Z"/><path id="Path_173" data-name="Path 173" class="cls-5" d="M589.78,445.64a23.65,23.65,0,0,1,4.16,2.2,6.49,6.49,0,0,0,2.77,1.39c2.26.23,2.71-2.76,2.76-4.43,0-1.22-1.85-1.22-1.9,0,0,.76,0,2.34-1.12,2.37-.46,0-1.19-.73-1.56-1a25,25,0,0,0-4.15-2.2c-1.11-.49-2.08,1.15-1,1.64Z"/><path id="Path_174" data-name="Path 174" class="cls-5" d="M580.5,152.07c.8-2.91,3.8-3.64,6.23-4.63a35.12,35.12,0,0,0,5.19-2.81c4.23-2.53,9-3.71,13.76-4.58,1.2-.21.7-2-.5-1.82a45.61,45.61,0,0,0-16.08,6c-3.62,2.17-9.15,2.7-10.43,7.41a.95.95,0,0,0,1.83.5Z"/><path id="Path_175" data-name="Path 175" class="cls-5" d="M582.3,146.22l-.17,8.28a.95.95,0,0,0,1.9,0l.17-8.28a1,1,0,1,0-1.9,0Z"/><path id="Path_176" data-name="Path 176" class="cls-5" d="M583.68,148.09c4.7,4.72,9.89,9.06,16.57,10.44,1.19.25,1.7-1.58.51-1.83-6.37-1.31-11.26-5.46-15.74-9.95a.95.95,0,0,0-1.34,1.34Z"/><path id="Path_177" data-name="Path 177" class="cls-5" d="M531.61,209.66l-.8,15.14h1.9l.57-14.55a1,1,0,0,0-1.87-.26,142,142,0,0,0-2.7,20.64c-.07,1.22,1.82,1.22,1.9,0a140.56,140.56,0,0,1,2.63-20.13l-1.9-.25-.56,14.55c0,1.23,1.84,1.22,1.9,0l.8-15.14c.06-1.22-1.83-1.21-1.9,0Z"/><path id="Path_178" data-name="Path 178" class="cls-5" d="M528.81,203.45c-5.07,9-12.93,16.27-16.26,26.23-.39,1.16,1.45,1.66,1.83.5,3.27-9.77,11.12-16.92,16.07-25.76C531,203.35,529.4,202.39,528.81,203.45Z"/><path id="Path_179" data-name="Path 179" class="cls-5" d="M313.7,464.59a5,5,0,0,1,4.53,1.35,31.08,31.08,0,0,1,3.26,3.62c.76,1,2.1-.39,1.35-1.34a25,25,0,0,0-4.23-4.43,6.35,6.35,0,0,0-4.91-1.07c-1.21.12-1.21,2,0,1.9Z"/><path id="Path_180" data-name="Path 180" class="cls-5" d="M320.23,463.72c-1.57-.46-4.2-1.46-5.5.06-.79.92.54,2.27,1.34,1.34.37-.42,1.07-.19,1.54-.1.72.15,1.42.33,2.12.53a1,1,0,0,0,1.13-.72.94.94,0,0,0-.63-1.11Z"/><path id="Path_181" data-name="Path 181" class="cls-5" d="M277,470.4a13.51,13.51,0,0,0,3.94,2.85c1.1.51,2.07-1.12,1-1.64a12,12,0,0,1-3.56-2.54c-.84-.88-2.18.46-1.34,1.35Z"/><path id="Path_182" data-name="Path 182" class="cls-5" d="M267.36,449.89c.38-1.15.24-2.37.66-3.53a7.21,7.21,0,0,1,2.32-3.1c.94-.77-.4-2.12-1.35-1.34a8.83,8.83,0,0,0-2.53,3.3c-.63,1.37-.47,2.79-.93,4.16-.39,1.17,1.45,1.66,1.84.51Z"/></g><path id="Path_183" data-name="Path 183" class="cls-4" d="M531.74,212.09c-3.24-5.6-6.58-11.26-8.22-17.58A29.38,29.38,0,0,1,525.6,175a26.31,26.31,0,0,1,4.79-7.51c2.29-2.4,5.2-4,7.85-5.93,5.27-3.88,9-9,12.18-14.67,9.49-16.55,26.8-49.72,50.51-35.45a27.94,27.94,0,0,1,11.3,12.8c1.9,4.58,2.53,10.52-1.77,13.85-2,1.51-1.72,5.15,0,6.7,3.33,3,6.8,6.4,8.54,10.64s.5,8-2.34,11.44c-5.75,6.9-13.36,14-22.78,14.31-10.4.38-20.64-3-31.09-3.07-9.61-.05-19.72,1.86-27.69,7.53-8.23,5.83-14,14.56-14.27,24.78-.17,6.11,9.32,6.11,9.5,0,.24-8.45,6.33-15.28,13.55-19,9.31-4.83,20.79-4.3,30.87-2.87,10.72,1.53,21.44,4,31.7-.84,4.48-2.13,8.34-5.53,11.89-8.94s7.08-6.83,9.14-11.21c5.31-11.31-2.1-22-10.32-29.45v6.71c11.25-8.7,4.91-25.8-2.82-34.44-8.86-9.93-23.34-15-36-9.82-13.62,5.52-22.92,19.57-30.35,31.6-3.84,6.22-6.78,13.44-11.87,18.77-2.53,2.65-5.7,4.4-8.58,6.56a31.33,31.33,0,0,0-8.1,8.91c-4.75,7.81-7.15,17.34-5.85,26.42,1.27,8.74,5.62,16.55,10,24.05,3.06,5.29,11.27.52,8.2-4.79Z"/><path id="Path_184" data-name="Path 184" class="cls-4" d="M586,154c8-3.65,16.72-7.68,25.73-6.45,2,.28,4.06-.5,4.68-2.65.5-1.78-.64-4.4-2.66-4.68-11.39-1.55-21.45,2.59-31.59,7.22C577.75,149.45,581.6,156,586,154Z"/><g id="Lag_5" data-name="Lag 5"><path id="Path_185" data-name="Path 185" class="cls-5" d="M314.75,417.39c3.64.17,10.1.53,12.72-2.6a1,1,0,0,0,0-1.36,1,1,0,0,0-.63-.26c-5.7,0-12.32.91-17.86-.39-.63-.15-1.43.45-1.17,1.16.79,2.11,4.36,2.53,6.25,3,2.59.68,6,1.34,8.49.14a.94.94,0,0,0,.46-.81c.06-1.11-.63-1.55-1.65-1.8-2.43-.63-5.49-.27-8-.38-1.22-.06-1.21,1.84,0,1.9l4.44.2c1.26.06,3.2.25,1-.42-1.48-.45-3.27-.37-4.8-.8-.64-.18-4.13-.89-4.37-1.53l-1.17,1.16c5.8,1.37,12.43.48,18.35.46l-.67-1.62c-2.29,2.75-8.14,2.2-11.39,2.05-1.22-.06-1.22,1.84,0,1.9Z"/><path id="Path_186" data-name="Path 186" class="cls-5" d="M314.29,413.88c-3,.24-6.23-1.66-9-2.78-.86-.36-1.64,1-.92,1.58a18.82,18.82,0,0,0,9.45,4c1.21.15,1.2-1.74,0-1.9a16.56,16.56,0,0,1-8.1-3.43l-.93,1.58c3,1.21,6.19,3.12,9.5,2.86,1.2-.1,1.22-2,0-1.9Z"/><path id="Path_187" data-name="Path 187" class="cls-5" d="M327.08,414.39c.69-.53,1-.43.94.3.3.67,0,1-.94,1A20.37,20.37,0,0,1,324,417c-2.41,1-4.5,1.9-7.2,1.62-5-.52-7.86-3.25-11.31-6.56-.89-.85-2.22.48-1.35,1.34,3,2.94,8.23,4.54,12.3,4.89,5.17.43,9.4-1.84,13.64-4.54l-1.4-1.07c-.58,2.67-5.15,3.75-7.38,4.25a21.32,21.32,0,0,1-8,.22c-1.2-.19-1.72,1.64-.51,1.82a23.77,23.77,0,0,0,11.08-.78c2.58-.85,6-2.07,6.64-5a1,1,0,0,0-.72-1.16.9.9,0,0,0-.68.09c-3.55,2.27-7.22,4.48-11.6,4.33-3.94-.12-9.14-1.55-12-4.38l-1.33,1.34c2.61,2.5,4.91,5.14,8.46,6.21,4.52,1.37,7.6,1,11.9-.78,1.76-.73,6.81-1.68,7-4.18.14-2.73-3.12-2.62-4.82-2.08-1.17.37-.67,2.2.5,1.83Z"/><path id="Path_188" data-name="Path 188" class="cls-5" d="M330.4,412.26c-3.25-.52-6.65.3-9.89.68a76.24,76.24,0,0,1-11.3.63c-1.22,0-1.22,1.86,0,1.9a72.89,72.89,0,0,0,10.13-.47c3.37-.36,7.21-1.42,10.58-.88,1.2.19,1.71-1.64.5-1.83Z"/><path id="Path_189" data-name="Path 189" class="cls-5" d="M633.78,438.69c8.23-10.4,19.62-18.52,24.4-31.3.43-1.15-1.41-1.64-1.83-.5-4.63,12.4-16,20.36-23.91,30.46C631.69,438.3,633,439.65,633.78,438.69Z"/><path id="Path_190" data-name="Path 190" class="cls-5" d="M659.57,381.62c.39,10.51-2.6,20.6-6,30.43a68.31,68.31,0,0,1-5.94,12.7c-1.36,2.24-2.82,4.43-4.32,6.56-.65.92-1.3,1.84-2,2.75L640,435.87q-1.62,1.85.74.06h3.53c-.09,0,.9,1.08-.39-.42l1.71,2.93-.18-.64v3.54l.17-.47-1.71,2.94c5.9-7.54,13.74-13.3,18-22.07,4.21-8.57,8.34-17.95,10.08-27.38.81-4.43,1.5-9.26,0-13.62-1.73-4.89-6.47-9.24-12-7.51-5.91,1.9-5.41,8-5.7,12.94a60.72,60.72,0,0,1-2.63,13.55c-3.25,11-8.05,21.57-12.5,32.12-1.39,3.31,1.5,7.31,4.64,8.17,3.84,1.05,6.78-1.32,8.18-4.64,3.8-9,7.71-17.92,10.89-27.12a91.08,91.08,0,0,0,3.6-13.43c.44-2.47.79-5,1-7.48.1-1.15.15-2.31.17-3.46v-1.74c-.17.58-.13.49.13-.26l-1.7,2.94.38-.47-2.93,1.71.56-.21h-3.53c-.19,0-1-.86-1.17-.74a10.91,10.91,0,0,1,.16,2.21,32.21,32.21,0,0,1-1.14,6.88,95.1,95.1,0,0,1-5,14.09c-1.9,4.46-3.72,9.16-6.86,12.92s-6.94,7.37-10.3,11.13c-1.49,1.65-3.09,3.28-3.69,5.48-.86,3.1.71,6.18,3,8.23a9.83,9.83,0,0,0,7.81,2.86c3.3-.34,5.23-2.44,7.1-4.93,6.24-8.37,11.71-16.91,15.3-26.76,4.14-11.35,7.54-23.37,7.1-35.56-.31-8.53-13.6-8.57-13.3,0Z"/><path id="Path_191" data-name="Path 191" class="cls-5" d="M644.07,445.92c8.55,0,8.56-13.3,0-13.3S635.49,445.92,644.07,445.92Z"/><path id="Path_192" data-name="Path 192" class="cls-5" d="M636.74,441.54a169.81,169.81,0,0,0,27.52-38c2.28-4.33-4.27-8.17-6.56-3.84a162.33,162.33,0,0,1-26.36,36.5c-3.38,3.53,2,8.91,5.38,5.38Z"/><path id="Path_193" data-name="Path 193" class="cls-5" d="M662.59,379.06a4.57,4.57,0,0,0-1-2.95,3.91,3.91,0,0,0-1.27-1.19,7,7,0,0,0-1-.44l-.26-.08a4.06,4.06,0,0,0-2,0,3.81,3.81,0,0,0-2.65,4.68l.15,1a2.93,2.93,0,0,0,.68,1.26,2.88,2.88,0,0,0,1.07,1,3.91,3.91,0,0,0,2.92.38,3.85,3.85,0,0,0,2.27-1.74l.38-.91a3.85,3.85,0,0,0,0-2l-.14-1L657,381.7a1.12,1.12,0,0,1,.26.08l-.91-.39.15.09-.77-.59a1.07,1.07,0,0,1,.19.18l-.59-.77.14.22-.39-.91a2.58,2.58,0,0,1,.08.26l-.14-1V379a3.8,3.8,0,0,0,6.48,2.68,4,4,0,0,0,1.11-2.68Z"/><path id="Path_194" data-name="Path 194" class="cls-5" d="M679.29,404.85c4.89,0,4.9-7.6,0-7.6S674.4,404.85,679.29,404.85Z"/><path id="Path_195" data-name="Path 195" class="cls-5" d="M418.25,564.83a7,7,0,0,1,4.13,1.61c.93.78,2.28-.56,1.34-1.34a9.14,9.14,0,0,0-5.47-2.17C417,562.86,417,564.76,418.25,564.83Z"/><path id="Path_196" data-name="Path 196" class="cls-5" d="M446.07,409.5c-.09,2.76-1.41,5.35-2.38,7.88a48,48,0,0,1-3.53,7.68.95.95,0,0,0,1.64.95,50.46,50.46,0,0,0,3.72-8.12c1.06-2.74,2.34-5.43,2.45-8.4C448,408.27,446.11,408.27,446.07,409.5Z"/><path id="Path_197" data-name="Path 197" class="cls-5" d="M448.43,412A54.51,54.51,0,0,1,450,401.84a.95.95,0,0,0-1.83-.5A55.63,55.63,0,0,0,446.53,412C446.45,413.22,448.35,413.22,448.43,412Z"/><path id="Path_198" data-name="Path 198" class="cls-5" d="M448.84,412.07a31.66,31.66,0,0,1,1.08-9,1,1,0,0,0-.72-1.13.94.94,0,0,0-1.11.63,33.4,33.4,0,0,0-1.15,9.49.95.95,0,0,0,1.9,0Z"/><path id="Path_199" data-name="Path 199" class="cls-5" d="M447,411.68q-5,9.94-9.59,20.08c-.5,1.1,1.14,2.07,1.64,1q4.6-10.12,9.59-20.08C449.19,411.55,447.56,410.59,447,411.68Z"/><path id="Path_200" data-name="Path 200" class="cls-5" d="M537.91,521c1.52-2.1,4.19-2.94,6.2-4.43.69-.52.56-1.8-.48-1.77a9.3,9.3,0,0,0-5.4,2.33,6.26,6.26,0,0,0-1.79,2.2,18.79,18.79,0,0,0-.58,2.7l1.74-.22c-1.23-2.36,1.08-3.11,2.77-4a25.94,25.94,0,0,0,3.92-2.57c1-.76-.4-2.1-1.35-1.35a22.16,22.16,0,0,1-3.53,2.28,13.64,13.64,0,0,0-2.79,1.56c-1.66,1.42-1.61,3.16-.66,5a1,1,0,0,0,1.73-.23c.42-1.48.29-2.63,1.54-3.8a7.45,7.45,0,0,1,4.43-2.05l-.48-1.77c-2.32,1.75-5.12,2.7-6.88,5.13-.72,1,.93,1.94,1.64,1Z"/><path id="Path_201" data-name="Path 201" class="cls-5" d="M537.33,518.82c-.05.36,0,.38.29.06.16-.11.33-.21.5-.31.46-.27.92-.53,1.39-.78q1.4-.78,2.82-1.5c1.09-.56.13-2.21-1-1.64-1.5.76-3,1.53-4.46,2.43-.93.59-1.9,1.55-1.22,2.69s2.28.1,1.64-.95Z"/><path id="Path_202" data-name="Path 202" class="cls-5" d="M576.2,511c-4.74,2.81-8.54,7-13.43,9.49-1.08.57-.12,2.21,1,1.64,4.89-2.57,8.68-6.7,13.42-9.49a.95.95,0,0,0-.95-1.64Z"/><path id="Path_203" data-name="Path 203" class="cls-5" d="M635.78,499.53c-1.42.33-2.8-.7-4-1.26l-3.16-1.57c-1.1-.54-2.06,1.1-1,1.64,1.59.79,3.17,1.58,4.75,2.35a5.54,5.54,0,0,0,3.88.7c1.19-.28.68-2.11-.51-1.84Z"/><path id="Path_204" data-name="Path 204" class="cls-5" d="M636,500.93l-4.35-2a8.79,8.79,0,0,1-3.67-2.44c-.71-1-2.36,0-1.64,1,2,2.72,5.76,3.76,8.7,5.09C636.14,503.07,637.11,501.43,636,500.93Z"/><path id="Path_205" data-name="Path 205" class="cls-5" d="M627.5,499.39c4.26,1.45,9,1.55,12.88,3.94a1,1,0,0,0,1-1.64c-4.08-2.49-8.91-2.62-13.34-4.13C626.84,497.16,626.34,499,627.5,499.39Z"/><path id="Path_206" data-name="Path 206" class="cls-5" d="M624.24,527.85c-1.52-.67-2.9-1.21-4.57-.63-1.14.41-.63,2.24.51,1.83a3.87,3.87,0,0,1,3.11.43c1.06.46,2.07-1.15,1-1.64Z"/><path id="Path_207" data-name="Path 207" class="cls-5" d="M625.56,528.19c-2.29-.5-4.43-2.42-6.64-.57-.94.79.41,2.12,1.34,1.34,1.16-1,3.52.79,4.79,1.07a1,1,0,0,0,.51-1.84Z"/><path id="Path_208" data-name="Path 208" class="cls-5" d="M409.22,493.76c0-1.65-.08-3.32,0-5,.11-2,.89-2.75,2.47-3.8,1-.67.07-2.32-1-1.64a7,7,0,0,0-3.1,3.26c-.76,2.13-.35,4.91-.32,7.14a.95.95,0,0,0,1.9,0Z"/><path id="Path_209" data-name="Path 209" class="cls-5" d="M395.66,486c-.58,1.09-1.46,2-2.1,3.08a40.1,40.1,0,0,0-1.82,3.58,1,1,0,0,0,.38,1.31.93.93,0,0,0,.69.09,15.24,15.24,0,0,1,4.52-.22c.8,0,2.15.28,2.64-.59s-.35-2.39-.63-3.25-.46-1.53-.7-2.28a9.89,9.89,0,0,1-.63-1.46c-.06-1.22-2-1.22-1.9,0a11.67,11.67,0,0,0,1,2.73,17.34,17.34,0,0,1,1.14,3.8l.47-.82H395.6a10.75,10.75,0,0,0-3.29.3l1.08,1.4a36.61,36.61,0,0,1,1.82-3.59c.63-1.06,1.51-2,2.1-3.08s-1.07-2-1.64-1Z"/><path id="Path_210" data-name="Path 210" class="cls-5" d="M397.87,488.09c-1.33-.67-2.3.35-2.65,1.56-.3,1.05-.63,2.47.83,2.69,1,.15,2.6-.18,2.9-1.33.36-1.33-1.15-1.9-2.17-2.12a2.46,2.46,0,0,0-2.95,1.38c-.33,1-.21,2.76,1.17,2.67a4.07,4.07,0,0,0,2.76-1.9,4.67,4.67,0,0,0,.74-3.48c-.18-1.2-2-.69-1.82.51a2.81,2.81,0,0,1-.43,1.83c-.28.43-.88,1.1-1.44,1.12l.67.27c.32.37,0-.13.11-.32s.17-.26.41-.29a2.36,2.36,0,0,1,.8.14,1.6,1.6,0,0,1,.33.11c.24.14.25-.06,0-.58a5.56,5.56,0,0,0-.7.08h-.24c.38.8.59.95.64.43a2.65,2.65,0,0,0,.16-.63,1.4,1.4,0,0,1,.1-.35c.17-.24.1-.3-.22-.2,1.09.55,2.05-1.08,1-1.64Z"/><path id="Path_211" data-name="Path 211" class="cls-5" d="M312.75,428.52a5.44,5.44,0,0,0-.72,2.76,1,1,0,0,0,.94.94c1.19.1,2.58-.1,3.09-1.34a2.51,2.51,0,0,0-1.38-3c-2.17-1.34-4.73,1.14-4,3.45a2.8,2.8,0,0,0,2.65,1.78c1.15.06,2.68-.1,3.23-1.27a2.71,2.71,0,0,0-.43-3,3.24,3.24,0,0,0-3.09-.46,1.62,1.62,0,0,0,.28,2.93c1.44.44,2.31-1,1.79-2.25s-2.12-.16-1.64,1a8.24,8.24,0,0,1,1.39.32c.26.1.3.1.11,0s-.15-.08-.08.11.05.3,0,.43c-.18.5-1.9.42-2.28.05s.2-1.68.83-1.58c.24,0,.86.48.84.74s-1.08.2-1.27.19l.95.94a3.55,3.55,0,0,1,.46-1.8.93.93,0,0,0-.37-1.28,1,1,0,0,0-1.27.33Z"/><path id="Path_212" data-name="Path 212" class="cls-5" d="M317.06,455.38a30.41,30.41,0,0,0-2.13-2.4,1,1,0,0,0-1.36,0,1,1,0,0,0-.26.63,10.34,10.34,0,0,0,0,1.76,3.65,3.65,0,0,0,.44,1.81c.4.52,1,.42,1.57.33l2-.27a1,1,0,0,0,.66-1.17,1,1,0,0,0-1.17-.63l-1.15.16-.45.06-.35.05h-.07l.57.44a3.76,3.76,0,0,1-.14-1.2,9.84,9.84,0,0,1,0-1.33l-1.57.66q1.13,1.15,2.13,2.4a1,1,0,0,0,1.34,0,1,1,0,0,0,0-1.34Z"/><path id="Path_213" data-name="Path 213" class="cls-5" d="M655.47,623.09c1.86,2.75,5.12,6.28,8.8,5.64.79-.13.8-1.08.42-1.58-1.86-2.41-4.85-3.3-7.1-5.23-.92-.79-2.27.54-1.34,1.34,2.23,1.93,5.26,2.86,7.1,5.23l.42-1.58c-2.61.44-5.38-2.9-6.66-4.78C656.42,621.13,654.78,622.08,655.47,623.09Z"/><path id="Path_214" data-name="Path 214" class="cls-4" d="M613.68,556.91q-1.74-10.85-2.87-21.74c-.12-1.2-2-1.22-1.9,0q1.15,11.16,2.93,22.24C612,558.61,613.87,558.1,613.68,556.91Z"/><path id="Path_215" data-name="Path 215" class="cls-4" d="M612.53,556.1a75.7,75.7,0,0,1-1.35-7.92c-.15-1.2-2-1.22-1.9,0a82.84,82.84,0,0,0,1.42,8.43C611,557.81,612.79,557.3,612.53,556.1Z"/><path id="Path_216" data-name="Path 216" class="cls-4" d="M588.94,566.87q0-5.76-.34-11.49c-.09-1.21-2-1.23-1.9,0q.38,5.75.34,11.49a1,1,0,1,0,1.9,0Z"/><path id="Path_217" data-name="Path 217" class="cls-4" d="M589.66,571.86A153.5,153.5,0,0,0,588,555c-.18-1.2-2-.69-1.82.5a152,152,0,0,1,1.6,16.36C587.81,573.07,589.71,573.08,589.66,571.86Z"/><path id="Path_218" data-name="Path 218" class="cls-4" d="M666.46,552.63c-1.16-2.9-2.3-5.8-3.49-8.69a64.87,64.87,0,0,0-3.33-6.2c-.58-1.07-2.22-.11-1.64,1a66.24,66.24,0,0,1,3.52,6.67q1.56,3.87,3.1,7.76c.45,1.12,2.29.64,1.83-.5Z"/><path id="Path_219" data-name="Path 219" class="cls-4" d="M665.21,552.08c-.58-2-.88-4.63-2.41-6.21a1,1,0,0,0-1.36,0,1,1,0,0,0-.26.63q0,3.27.18,6.53a1,1,0,0,0,1.9,0,15.25,15.25,0,0,0-.48-5.12,1,1,0,0,0-1.83.51,13.51,13.51,0,0,1,.41,4.61h1.9c-.15-2.17-.21-4.34-.18-6.53l-1.62.67c1.21,1.27,1.47,3.75,1.9,5.37a.95.95,0,0,0,1.83-.5Z"/><path id="Path_220" data-name="Path 220" class="cls-4" d="M561.66,537.24c4.53-1.18,9-3.22,13.56-4.1,1.2-.23.69-2.06-.5-1.83-4.58.88-9,2.92-13.57,4.09a1,1,0,0,0,.51,1.83Z"/><path id="Path_221" data-name="Path 221" class="cls-4" d="M579.38,506.63c1.8,2.53,3.29,4.91,3.83,8s.89,6.07,1.32,9.1c.17,1.2,2,.69,1.82-.5-.47-3.33-.76-6.76-1.49-10a20.69,20.69,0,0,0-3.84-7.51C580.32,504.69,578.67,505.64,579.38,506.63Z"/><path id="Path_222" data-name="Path 222" class="cls-4" d="M574.69,501.16v2.53h1.9l0-4.68a1,1,0,0,0-1.9-.26q-.69,2.89-1.17,5.84c-.19,1.2,1.64,1.71,1.84.51q.46-2.94,1.16-5.84l-1.87-.25,0,4.68a1,1,0,1,0,1.9,0h0v-2.53a.95.95,0,0,0-1.9,0Z"/><path id="Path_223" data-name="Path 223" class="cls-4" d="M510.45,533.44a79.69,79.69,0,0,1,9.13-10.29c.89-.84-.46-2.18-1.34-1.34a81.06,81.06,0,0,0-9.43,10.68c-.73,1,.91,1.9,1.64,1Z"/><path id="Path_224" data-name="Path 224" class="cls-4" d="M513.9,541c-1.81-.53-3.84-.81-4.43-2.91-.43-1.5-.54-4.37.73-5.49.91-.82-.44-2.15-1.35-1.34-1.86,1.65-1.8,5.11-1.21,7.34.77,2.86,3.2,3.48,5.76,4.23a.93.93,0,0,0,1.13-.72A.94.94,0,0,0,513.9,541Z"/><path id="Path_225" data-name="Path 225" class="cls-4" d="M518.36,553.55l5.62-6.7c.63-.76-.2-2.15-1.15-1.49a59.78,59.78,0,0,0-7.24,5.95l1.58.42c.08.27,1.37-1.33,1.45-1.43l1.64-1.95c.63-.76-.2-2.16-1.16-1.49a23.92,23.92,0,0,0-4.24,3.8c-.8.91.54,2.26,1.35,1.34a21.8,21.8,0,0,1,3.86-3.51l-1.16-1.5-2.72,3.25c-.51.63-1.09,1.13-.85,2a1,1,0,0,0,1.2.65.86.86,0,0,0,.39-.23,57,57,0,0,1,6.86-5.65l-1.15-1.49L517,552.2c-.77.93.56,2.28,1.35,1.34Z"/><path id="Path_226" data-name="Path 226" class="cls-4" d="M484.46,557a20.72,20.72,0,0,0,5.7,3c1.16.4,1.66-1.43.5-1.83a19.25,19.25,0,0,1-5.23-2.8c-1-.74-1.9.91-1,1.64Z"/><path id="Path_227" data-name="Path 227" class="cls-4" d="M504.76,571.73a22.28,22.28,0,0,0-3.37-3.56l-1.15,1.49c2,1,4.09,1.9,6.17,2.76,1.08.45,1.53-1.16.74-1.74s-1.43-1-2.17-1.47a9.38,9.38,0,0,1-2.17-1.35c-.78-.94-2.11.41-1.34,1.35a8.82,8.82,0,0,0,2.19,1.41,30.33,30.33,0,0,1,2.53,1.71l.73-1.75c-1.9-.8-3.84-1.63-5.7-2.56-.9-.44-2,.75-1.15,1.5a19.53,19.53,0,0,1,3.07,3.16c.74,1,2.39,0,1.64-1Z"/><path id="Path_228" data-name="Path 228" class="cls-4" d="M433.47,606.59a26.16,26.16,0,0,1,.21-4.68c.18-1.2-1.65-1.71-1.83-.51a27.34,27.34,0,0,0-.28,5.19C431.62,607.81,433.52,607.81,433.47,606.59Z"/><path id="Path_229" data-name="Path 229" class="cls-4" d="M430.37,588.73c-.3-.94-.84-1.75-1.19-2.66-.15-.4-.09-.83-.21-1.26a15,15,0,0,0-.64-1.48c-.5-1.11-2.13-.14-1.63,1a5.92,5.92,0,0,1,.5,1.35,4.43,4.43,0,0,0,.22,1.07c.35.86.84,1.61,1.13,2.53.37,1.16,2.21.66,1.83-.51Z"/><path id="Path_230" data-name="Path 230" class="cls-4" d="M409.82,566.94a38.54,38.54,0,0,0-8.49-3.94c-1.15-.38-1.65,1.45-.5,1.83a36.42,36.42,0,0,1,8,3.75A1,1,0,0,0,409.82,566.94Z"/><path id="Path_231" data-name="Path 231" class="cls-4" d="M378.86,567c2-1.51,3.95-3.07,5.88-4.65.95-.78-.4-2.11-1.34-1.34q-2.72,2.22-5.5,4.36c-.95.72,0,2.38,1,1.63Z"/><path id="Path_232" data-name="Path 232" class="cls-4" d="M379.69,690.25l0-1.46a1,1,0,0,0-1-.94,1,1,0,0,0-.44.12c-1.33.6-1.84,2.43-2.44,3.63l1.73.74a29.36,29.36,0,0,0,1.1-6.51,1,1,0,0,0-1.87-.25,58.77,58.77,0,0,1-1.76,6c-.41,1.15,1.43,1.65,1.83.5a58.77,58.77,0,0,0,1.76-6l-1.86-.25a26.55,26.55,0,0,1-1,6c-.29,1,1.27,1.72,1.73.73.42-.82.88-2.53,1.77-2.95l-1.43-.82,0,1.46a1,1,0,0,0,1,1,1,1,0,0,0,.94-1Z"/><path id="Path_233" data-name="Path 233" class="cls-5" d="M265.83,668.37c-4.29-3.13-10.38-4.19-15.5-5.07-1.2-.2-1.71,1.63-.51,1.83,4.94.84,10.94,1.87,15.06,4.88C265.87,670.73,266.81,669.08,265.83,668.37Z"/><path id="Path_234" data-name="Path 234" class="cls-5" d="M267,670.15c-5-2.53-11-3.61-16.41-4.78-1.19-.26-1.7,1.57-.51,1.83,5.23,1.14,11.16,2.15,16,4.6,1.09.55,2-1.08,1-1.64Z"/><path id="Path_235" data-name="Path 235" class="cls-5" d="M261.43,667.26c-1.83-.37-3.42-1.42-5.24-1.85-1.19-.27-1.7,1.56-.5,1.84,1.81.42,3.4,1.47,5.24,1.83,1.2.24,1.71-1.59.5-1.82Z"/><path id="Path_236" data-name="Path 236" class="cls-5" d="M260.39,677.79c-1.06-.56-2.1-1.16-3.1-1.8s-2,1-1,1.64,2,1.26,3.1,1.8S261.47,678.36,260.39,677.79Z"/><path id="Path_237" data-name="Path 237" class="cls-5" d="M260.84,677.89c-1.06-1.9-2.61-3.43-3.73-5.27a16.22,16.22,0,0,1-2.17-8.41c0-1.22-1.86-1.22-1.9,0a18.36,18.36,0,0,0,1.83,8c1.06,2.5,3,4.28,4.33,6.65.59,1.08,2.23.12,1.64-1Z"/><path id="Path_238" data-name="Path 238" class="cls-5" d="M252,669.93q.89,3.72,2.13,7.32a1,1,0,0,0,1.21.63,1,1,0,0,0,.63-.63,7.64,7.64,0,0,0-.51-3.87c-.44-1.62-.78-3.27-1.07-4.93-.16-1-1.59-.84-1.83,0-.37,1.27.5,2.53,1,3.66.35.77.68,1.56,1.06,2.32s1.33,1.68,1.27,2.54c-.11,1.21,1.79,1.2,1.9,0s-.81-2.12-1.38-3.17c-.4-.75-.72-1.53-1.07-2.3-.27-.59-1.13-1.86-1-2.49h-1.84c.21,1.27.46,2.48.76,3.7s1.1,2.87.81,4.09H256a69.43,69.43,0,0,1-2.11-7.32c-.24-1.2-2.07-.69-1.83.5Z"/><path id="Path_239" data-name="Path 239" class="cls-5" d="M196.46,502.6a1,1,0,1,0-1-1h0A1,1,0,0,0,196.46,502.6Z"/><path id="Path_240" data-name="Path 240" class="cls-5" d="M194.2,493.56c-1.9,5.23-3.69,10.53-6.33,15.46-.57,1.08,1.07,2,1.64,1,2.68-5.07,4.5-10.54,6.48-15.91.43-1.15-1.41-1.65-1.82-.51Z"/><path id="Path_241" data-name="Path 241" class="cls-5" d="M190.94,505.59a31.54,31.54,0,0,1,1.8-5.19c.8-1.9,1.44-5.06,3-6.33.94-.78-.41-2.11-1.34-1.34-1.54,1.26-2.09,3.7-2.83,5.47a44.39,44.39,0,0,0-2.53,6.92c-.26,1.19,1.57,1.7,1.83.5Z"/><path id="Path_242" data-name="Path 242" class="cls-5" d="M337,424.79a38.19,38.19,0,0,0,7.55-3.1c1.08-.58.11-2.22-1-1.64a35.57,35.57,0,0,1-7.09,2.9,1,1,0,1,0,.5,1.84Z"/><path id="Path_243" data-name="Path 243" class="cls-5" d="M323.87,414.5a1.66,1.66,0,0,0-1.7.44,1,1,0,0,0,1.35,1.34c.13-.14,0,0-.06,0s-.27,0-.08,0a.94.94,0,0,0,1.19-.61,1,1,0,0,0-.61-1.2l-.08,0Z"/><path id="Path_244" data-name="Path 244" class="cls-4" d="M345.47,457.11l7.51-2.23a1,1,0,0,0-.26-1.9,38.56,38.56,0,0,0-8.86,1.43l.74,1.74c1.55-1,3.49-.77,5-1.9a1,1,0,0,0-.48-1.77,35.39,35.39,0,0,0-5.25.16l.25,1.86a47.34,47.34,0,0,0,5.2-1.74,1,1,0,1,0-.25-1.9,18.73,18.73,0,0,0-6.54.53l.93,1.58c1.48-1.8,3.16-3.3,3.85-5.58a1,1,0,0,0-1.73-.74,90.12,90.12,0,0,1-5.42,7.3c-.77.93.56,2.29,1.34,1.34a92.87,92.87,0,0,0,5.7-7.67l-1.74-.74c-.58,1.94-2.11,3.24-3.36,4.75a1,1,0,0,0,0,1.36.93.93,0,0,0,.89.23,17.26,17.26,0,0,1,6-.46l-.24-1.87a48.29,48.29,0,0,1-5.21,1.75c-1,.27-.84,2,.25,1.87a34.09,34.09,0,0,1,5.25-.16l-.48-1.77c-1.47,1.09-3.45.91-5,1.9a1,1,0,0,0,.73,1.73,36,36,0,0,1,8.38-1.36l-.25-1.87L345,455.21a1,1,0,0,0,.51,1.83Z"/><path id="Path_245" data-name="Path 245" class="cls-4" d="M363.41,439.6c.59,1.49,1.27,2.93,1.93,4.38a9.78,9.78,0,0,1,.64,5.45c-.12,1.21,1.78,1.21,1.9,0a11.81,11.81,0,0,0-.25-4.95c-.63-1.84-1.7-3.57-2.41-5.38-.44-1.13-2.28-.64-1.83.5Z"/><path id="Path_246" data-name="Path 246" class="cls-4" d="M363.24,450.86a37.14,37.14,0,0,1-5.58-.31c-1.2-.16-1.71,1.67-.5,1.83a41.2,41.2,0,0,0,6.08.38.95.95,0,1,0,0-1.9Z"/><path id="Path_247" data-name="Path 247" class="cls-4" d="M344.27,457.94c2.08-.08,3.9-1,5.94-1.15a16.57,16.57,0,0,1,8.86,2.26c1.08.57,2-1.07,1-1.64a19.73,19.73,0,0,0-7.66-2.44c-2.95-.26-5.22,1-8.1,1.07-1.22,0-1.23,1.95,0,1.9Z"/><path id="Path_248" data-name="Path 248" class="cls-4" d="M407.33,487.42a63.58,63.58,0,0,1,3.6-9.65c.51-1.1-1.12-2.06-1.64-.95a66.27,66.27,0,0,0-3.8,10.12.95.95,0,0,0,1.83.51Z"/><path id="Path_249" data-name="Path 249" class="cls-4" d="M422.76,490.33c1.21-4.43,3.17-8.54,3.67-13.13.12-1.1-1.56-1.23-1.86-.25-1.24,3.88-1.38,8-2.39,11.91l1.83.51a16.51,16.51,0,0,1,1.84-5.28l-1.77-.48a28.55,28.55,0,0,1-.88,4.38.95.95,0,0,0,1.83.5,32.36,32.36,0,0,0,1-4.88c.11-1-1.34-1.27-1.77-.48a18.24,18.24,0,0,0-2,5.73c-.21,1.18,1.52,1.71,1.83.51,1-3.94,1.16-8,2.39-11.92l-1.9-.25c-.47,4.39-2.45,8.4-3.6,12.66a.94.94,0,0,0,.68,1.15,1,1,0,0,0,1.15-.64Z"/><path id="Path_250" data-name="Path 250" class="cls-5" d="M530.79,209.05q-1.23,15.87-4,31.57c-.21,1.19,1.62,1.71,1.83.5q2.8-15.93,4.05-32.07c.1-1.22-1.8-1.21-1.9,0Z"/><path id="Path_251" data-name="Path 251" class="cls-5" d="M533.06,210.23q-2.25,11.61-3.43,23.42c-.13,1.21,1.78,1.21,1.9,0q1.15-11.52,3.36-22.89c.22-1.19-1.6-1.7-1.83-.51Z"/><path id="Path_252" data-name="Path 252" class="cls-5" d="M530.3,209.1l-6.78,16.73c-.46,1.13,1.38,1.63,1.83.51q3.4-8.35,6.78-16.73c.46-1.13-1.38-1.62-1.83-.5Z"/><path id="Path_253" data-name="Path 253" class="cls-5" d="M532.76,211.23a28.61,28.61,0,0,1-3.58,8.14h1.63a17.71,17.71,0,0,1,.94-2.35c.3-.67.63-1.32,1-2,.7-1.3,1.47-2.53,2.25-3.8.63-1.07-.93-1.9-1.64-1a88.5,88.5,0,0,0-5.24,7.8l1.77.48c-.1-1.52,1.11-3.28,1.8-4.58l-1.73-.73-3.22,7.67c-.46,1.12,1.37,1.61,1.84.5l3.21-7.67c.42-1-1.27-1.66-1.73-.73-.85,1.58-2.19,3.69-2.06,5.54a1,1,0,0,0,1,.93.94.94,0,0,0,.77-.45,89.07,89.07,0,0,1,5.24-7.79l-1.64-1a50.23,50.23,0,0,0-3.38,6.14c-.49,1.11-1.51,2.74-.79,3.92a1,1,0,0,0,1.64,0,30.32,30.32,0,0,0,3.8-8.59,1,1,0,0,0-1.84-.5Z"/><path id="Path_254" data-name="Path 254" class="cls-5" d="M517.57,209.17a204.4,204.4,0,0,0,12.76,19.3c.58.79,2.13.37,1.73-.73-1.23-3.36-4.06-6.2-6.33-8.89-3.16-3.8-6.23-7.56-7.71-12.35l-1.59.92c5.34,6.59,10.45,13.51,16.68,19.3.9.84,2.24-.5,1.34-1.34-6.22-5.8-11.34-12.71-16.68-19.3-.63-.75-1.85.06-1.59.93a30.68,30.68,0,0,0,5.44,9.83c2.78,3.53,7.06,7.13,8.62,11.4l1.73-.74a204.3,204.3,0,0,1-12.75-19.3,1,1,0,0,0-1.64,1Z"/></g></g></svg>
