<svg id="Lag_1" data-name="Lag 1" xmlns="http://www.w3.org/2000/svg" xmlns:xlink="http://www.w3.org/1999/xlink" viewBox="0 0 660 708"><defs><style>.cls-1{fill:none;}.cls-2{clip-path:url(#clip-path);}.cls-3,.cls-5{fill:#333;}.cls-4,.cls-5{isolation:isolate;}.cls-5{font-size:200px;font-family:HoeflerText-Regular, Hoefler Text;}</style><clipPath id="clip-path"><rect class="cls-1" x="-84" y="65.5" width="767.16" height="418.04"/></clipPath></defs><title>WEB</title><g class="cls-2"><g id="Mask_Group_1" data-name="Mask Group 1"><g id="kamel_1" data-name="kamel 1"><path id="Path_1" data-name="Path 1" class="cls-3" d="M363.52,198.08c-11.34-.75-48.77,20.77-51.43,18.12-3-3,31.1-38.35,27.12-42.58-.7-.75-4.22.1-11.22,1.82-10,2.46-11.87,3.75-13.09,2.71-3-2.51,2.13-15.05,10.28-23.55,2.27-2.35,9-9.34,19.7-12.19,5-1.33,9.12-1.06,9.29-2.3.22-1.6-6.46-2.72-15-7.25-6.08-3.28-6.14-4.6-15-10.87-13.31-9.45-17.77-9.68-17.77-12.68,0-5.54,15.22-13.23,29.92-11.78,14.52,1.44,23.26,11.36,27.12,8.16,2.67-2.23.83-8.94-.93-12.69-4.61-9.72-14.67-11.85-17.77-21.74a4.47,4.47,0,0,1,0-3.62c2.2-3.83,13.24-1.47,15.9-.9,19.07,4.05,30.86,18.11,30.86,18.11C402,97.27,410.14,118.43,415,119.27a8.83,8.83,0,0,0,2.81,0,9,9,0,0,0,4.67-2.71c2.64-2.48,7.48-2.17,13.09-1.82,24.32,1.54,23.84,1.36,26.19,1.82,16.73,3.25,25.93,8.91,29,12.68a26.89,26.89,0,0,1,1.87,2.61c2,3.52,2,7.34,9.35,24.56.47,1.08,1.73,4,.94,4.53-1,.71-4.76-3-6.55-4.53-12.51-10.8-37.75-10-39.27-5.43-.35,1.09.66,2.28,1.87,3.62,13.55,15,26.18,19.57,31.79,30.8.76,1.5.45,1.27,2.81,10.87,7.48,30.52,12.81,42.19,10.28,43.48-2.14,1.1-7.48-6.5-27.11-24.46-7.89-7.24-12.78-11.25-15-10-2,1.16-.84,6.11,0,10,3.61,16.78,8.26,39.24,3.74,57.07-.28,1.12-2.58,13.59-5.61,13.59s-3.25-12.56-11.22-29.89c-6.75-14.66-14.88-23.72-17.77-22.65-.94.36-1,1.75-2.81,2.72-2.32,1.24-5.27.55-6.54,0-6.63-2.91-1.65-17.26-8.42-22.65-2.42-1.93-7.05-3.28-16.83,0,0,0-5.61,7.25-8.41,19.93s-11.22,88.77-11.22,88.77h0s3.31,25.47,6.54,50.73c4.28,33.58,5.12,41.6,11.22,53.44a83.18,83.18,0,0,0,12.16,18.12c18.12,20.41,38.09,22,37.4,28.08-.83,7.25-29.72,10.46-46.76,10.87-9.93.24-12.28-.55-37.4-2.72-36.63-3.15-48.62-2.92-49.55-7.24-1.43-6.34,23.37-10.87,31.79-32.61,2-5.09,2.24-9.06,2.62-15.61,1.37-24.61,2.06-36.92,2.05-58.67,0-29.17,1.66-51.23,2.81-66.13,1.44-18.57,2.15-27.85,3.74-34.42,5.18-21.47,13.09-48.91,13.09-48.91,1.28-4.46,4.34-15,0-18.12a5.22,5.22,0,0,0-2.81-.91Z"/><g id="Lag_3" data-name="Lag 3"><path id="Path_2" data-name="Path 2" class="cls-3" d="M489.29,455.79c5.86,6.89,10.09,8.7,13.09,16.31,2,5,2.09,9,2.8,9,1,0,2.6-8.25.94-16.3-2.22-10.72-8-10.43-16.83-25.36-8.17-13.8-7.35-21-15.9-26.27-2-1.22-4.59-2.4-6.55-5.43-3-4.61-1.25-8.51-1.87-14.49-.35-3.46-3.05-8.4-8.41-18.12-5.55-10.05-8.33-15.07-11.23-19-8.32-11.35-11.61-10.76-15.9-19-4.83-9.34-1.61-12-5.61-19.93-5-9.88-17.25-20.32-29-19-12.23,1.36-19.64,15-26.18,27.18-10.38,19.19-10.08,33.28-15,33.51-3,.15-5.65-5-13.09-23.55-8.1-20.25-12.15-30.38-14-37.14-6.29-22.64-5.29-33.44-15-53.44-3.92-8.1-6.46-11.23-10.29-12.68-14.21-5.44-34.39,16.7-36.47,19-14,15.62-18.15,32.52-19.63,38C236.66,320.91,223,323.78,140.5,432.25c-13.24,17.41-29.27,34.13-27.12,36.23,1.47,1.43,10.57-4.53,17.3-10.42,15.74-13.71,20.52-28.55,26.19-39.86,8.86-17.7,12.65-12.28,42.07-46.2,33.24-38.3,49.86-57.45,52.37-76.09.65-4.89,1.57-17,10.28-22.64,6.2-4,11.1-1.36,16.83-6.34,7-6.07,4.75-14.39,10.29-16.31,4.8-1.66,10.53,3.16,12.16,4.53,8.41,7.12,12,21.28,6.54,29-4,5.63-11.12,5.43-12.16,10.87-.6,3.12,1.48,4.73,2.81,8.15,5.24,13.49-11.36,28.88-7.48,32.61,1.64,1.59,6.32.43,9.35-1.81,8.61-6.34,3-20.73,9.35-23.55,3.21-1.42,8.21.61,10.29,3.62,3.51,5.09-2.54,11.34.93,16.31,2.19,3.12,5.28,1.63,10.29,4.52,7.41,4.3,12.76,14.58,10.28,21.74-2.07,6-8,5-11.22,11.78-3.83,8.06-.15,19.23,3.74,19.93,2,.36,4.68-2,5.61-4.53,1.74-4.63-3-7.93-1.87-11.78,1.31-4.48,8.6-2.91,15.9-7.24,8.17-4.87,12.31-15,20.57-35.33,1.7-4.15,2.75-7.11,4.68-7.25,3.57-.24,8.86,9.32,7.48,18.12-.63,3.94-3.74,6-2.81,7.24,1.08,1.42,6.29.83,9.36-1.81,8.16-7-3-25,3.74-29.89,3.68-2.72,11.63-.61,15.9,3.62,7.12,7.08.69,16.92,8.41,27.18,3.36,4.45,4.74,2.83,10.29,8.15,9.35,9,6.46,14.63,15,28.08,8.12,12.86,14.56,13.7,15.9,23.55.69,5.12-.77,7,.93,11.78,2.39,6.74,6.92,7.89,13.09,14.49C484.61,442.21,479.94,444.76,489.29,455.79Z"/></g><g id="Lag_4" data-name="Lag 4"><path id="Path_3" data-name="Path 3" class="cls-3" d="M278,273.72c-3,3.78-.44,8.66-2.8,10s-4.91-2.71-7.48-1.81c-4.2,1.47-3.45,14.24-.94,23.55.67,2.46,3,11,5.61,10.87,2.49-.11,4.2-7.8,4.68-10,1.74-7.84,0-10.87,2.8-14.49,2.25-2.89,6.14-4.6,7.48-3.63,1.72,1.25-1.06,6.76,0,7.25.82.37,2.4-2.83,6.55-6.34,3.45-2.92,5.83-3.62,5.61-4.53-.46-1.81-10.48,1.09-13.09-2.72-2.29-3.31,3-8.83.93-10.87C285.71,269.43,280.42,270.58,278,273.72Z"/><path id="Path_4" data-name="Path 4" class="cls-3" d="M287.31,477.53c0-.16-17.69-1.63-40.14-.76-14.11.54-16.66,1.49-43.08,3.48-20.28,1.53-30.56,2.28-37.4,1.81-24.56-1.7-46.33-10.29-45.81-12.68.47-2.21,20,1.43,58,4.53C238,478.75,287.31,477.81,287.31,477.53Z"/><path id="Path_5" data-name="Path 5" class="cls-3" d="M379,395.1c2.8,4.53,8.15,8.51,18.7,16.31,10,7.41,11.66,7.66,13.09,10.87,4,8.86-3.85,17.39,0,20.83,2.87,2.56,7.41-2,15.9-.91,6.93.91,11.68,4.91,18.7,10.87,10.36,8.79,12.42,14.87,17.77,14.5,3.67-.26,7.52-3.46,7.48-6.34-.09-4.87-11.22-5.67-22.44-13.59-7.1-5-6.92-7.77-17.77-21.74-8.11-10.45-15.06-17.54-29-31.7-21.5-21.86-24.31-21.34-25.24-20.84C372.65,375.17,373.74,386.79,379,395.1Z"/><path id="Path_6" data-name="Path 6" class="cls-3" d="M396.71,349.81c1.42-.09,1.57,5.27,6.55,13.59,1.2,2,1.79,2.72,8.42,10.87,7.95,9.83,11.92,14.83,11.22,19-.29,1.76-1.28,4.3-2.81,4.53-2.53.37-4.06-5.95-9.35-12.68-6.81-8.65-11.31-7.13-15-13.59C390.55,362.3,394.59,350,396.71,349.81Z"/><path id="Path_7" data-name="Path 7" class="cls-3" d="M330.33,402.35c-6.62.62-12,26.11-6.55,29,3,1.59,8.78-4,9.35-4.53s7-7.09,4.68-15.4C336.77,407.68,333.55,402.05,330.33,402.35Z"/><path id="Path_8" data-name="Path 8" class="cls-3" d="M252.71,365.21c-5.29-.38-3.29,17.65-18.7,37.14-5,6.34-26.78,31.7-32.72,41.67-.54.9-1.63,2.81-.94,3.62,1.51,1.76,10.29-3.12,11.22-3.62,11.36-6.35,13.5-14.75,22.45-26.27,13.48-17.36,22-15.52,25.24-27.18S257.23,365.54,252.71,365.21Z"/><path id="Path_9" data-name="Path 9" class="cls-3" d="M209.7,387.86c-11.11,12-20.85,22.69-18.7,25.36,1.58,1.95,8.87-1.2,10.29-1.81,23.94-10.37,34.48-43.12,30.86-45.3C230.62,365.21,223.64,372.75,209.7,387.86Z"/></g><g id="Lag_5" data-name="Lag 5"><path id="Path_10" data-name="Path 10" class="cls-3" d="M151.73,333.51c1.87.67,7.17,1,43-39.86,4.68-5.33,9.43-10.87,17.77-13.59,1.18-.38,13.58-4.26,24.31,1.81,6.79,3.84,9.13,9.52,12.16,14.5,11.66,19.15,25.71,15,44,33.51,7,7.12,23.76,24.13,21.5,43.48-1.76,15-14.43,27.09-8.41,35.33,1.46,2,2.24,1.32,4.67,3.62,7.06,6.7,5.17,16.92,4.68,38.95-.27,11.49,3.48,15.85,0,19.93-3.65,4.28-11.44,5.6-13.56,3.17-1.77-2,1-6,2.8-10.87,5.79-15.91-2.65-32.31-4.67-36.23-7.48-14.61-22.44-25-26.18-22.65-1.63,1-.05,3.77-.47,14.95-.2,5.09-.39,9.5-1.87,14.49-1,3.3-1.72,4.17-6.08,12.23-9.21,17.07-9.63,20-9.35,22.65.71,6.56,4.2,8.2,2.8,10.87-3.23,6.2-25.64,4.06-27.11-1.82-.7-2.71,3.69-4.44,9.35-10.87,10.24-11.64,12.42-25,13.09-29,1.75-10.67-.11-18.89-2.81-30.8s-3.47-17.86-6.54-20.84c-12.05-11.67-44.45-5.16-50.49,9.06-1.31,3.09-.47,4.39,0,14.49.64,13.94-.8,15-.94,30.8-.21,24.79,3.31,30.67-1.87,35.33-6,5.37-17.58,3.82-18.7.91-.93-2.38,5.52-4.79,8.42-12.68,1.23-3.37.88-5.17.93-11.78.15-18.29.34-18.65,0-24.46-.51-9.06-.93-15.71-2.34-15.85-1.8-.17-4.44,10.13-5.61,16.3a87.94,87.94,0,0,0-1.4,11.32c-1.52,27.23,1.12,33.15-3.74,37.14-6.65,5.48-18.95,3.37-19.63.91-.4-1.42,3.25-2.29,6.54-6.34,4.3-5.29,3.83-10.87,4.68-19.93.93-10.09,2-8,3.74-20.84,3-22.35,4.52-33.51-1.87-38.95-5.18-4.38-9.67-.05-19.64-5.43a34.6,34.6,0,0,1-14-14.49c-2.32-4.74-2.3-8-2.81-19.93-1.15-27.1-2.08-30.29-4.67-31.7-5.81-3.15-13.1,6.34-21.51,2.72-4.54-2-7.86-7.25-7.48-11.78.15-1.72.93-4.31,20.1-16.76,7.18-4.65,10-6.17,14-7.25s11.15-2.95,15.42.46c2.81,2.21,3.15,6.63,3.74,15.4.66,9.71-.37,11.82.94,18.11C148,328.12,148.93,332.45,151.73,333.51Z"/></g></g></g></g><g id="WEB" class="cls-4"><text class="cls-5" transform="translate(77 612.5)">WEB</text></g></svg>
